<svg width="576" height="594" version="1.1" xmlns="http://www.w3.org/2000/svg" desc="Created with imagetracer.js version 1.2.6" ><path fill="rgb(104,130,152)" stroke="rgb(104,130,152)" stroke-width="1" opacity="1" d="M 397.5 16 L 402 16.5 L 397.5 17 L 397.5 16 Z " /><path fill="rgb(104,130,152)" stroke="rgb(104,130,152)" stroke-width="1" opacity="1" d="M 429.5 16 L 433 16.5 L 429.5 17 L 429.5 16 Z " /><path fill="rgb(104,130,152)" stroke="rgb(104,130,152)" stroke-width="1" opacity="1" d="M 387.5 17 L 390 17.5 L 387.5 18 L 387.5 17 Z " /><path fill="rgb(104,130,152)" stroke="rgb(104,130,152)" stroke-width="1" opacity="1" d="M 287.5 22 L 293 22.5 L 287.5 23 L 287.5 22 Z " /><path fill="rgb(104,130,152)" stroke="rgb(104,130,152)" stroke-width="1" opacity="1" d="M 306.5 22 L 312 22.5 L 306.5 23 L 306.5 22 Z " /><path fill="rgb(104,130,152)" stroke="rgb(104,130,152)" stroke-width="1" opacity="1" d="M 129.5 23 L 140 23.5 L 129.5 24 L 129.5 23 Z " /><path fill="rgb(104,130,152)" stroke="rgb(104,130,152)" stroke-width="1" opacity="1" d="M 278.5 23 L 281 23.5 L 278.5 24 L 278.5 23 Z " /><path fill="rgb(104,130,152)" stroke="rgb(104,130,152)" stroke-width="1" opacity="1" d="M 319.5 23 L 322 23.5 L 319.5 24 L 319.5 23 Z " /><path fill="rgb(104,130,152)" stroke="rgb(104,130,152)" stroke-width="1" opacity="1" d="M 114.5 24 L 118 24.5 L 114.5 25 L 114.5 24 Z " /><path fill="rgb(104,130,152)" stroke="rgb(104,130,152)" stroke-width="1" opacity="1" d="M 153.5 24 L 156 24.5 L 153.5 25 L 153.5 24 Z " /><path fill="rgb(104,130,152)" stroke="rgb(104,130,152)" stroke-width="1" opacity="1" d="M 396.5 33 L 399 33.5 L 396.5 34 L 396.5 33 Z " /><path fill="rgb(104,130,152)" stroke="rgb(104,130,152)" stroke-width="1" opacity="1" d="M 431.5 33 L 435 33.5 L 431.5 34 L 431.5 33 Z " /><path fill="rgb(104,130,152)" stroke="rgb(104,130,152)" stroke-width="1" opacity="1" d="M 386.5 34 L 390 34.5 L 386.5 35 L 386.5 34 Z " /><path fill="rgb(104,130,152)" stroke="rgb(104,130,152)" stroke-width="1" opacity="1" d="M 440.5 34 L 443 34.5 L 440.5 35 L 440.5 34 Z " /><path fill="rgb(104,130,152)" stroke="rgb(104,130,152)" stroke-width="1" opacity="1" d="M 286.5 39 L 289 39.5 L 286.5 40 L 286.5 39 Z " /><path fill="rgb(104,130,152)" stroke="rgb(104,130,152)" stroke-width="1" opacity="1" d="M 309.5 39 L 314 39.5 L 309.5 40 L 309.5 39 Z " /><path fill="rgb(104,130,152)" stroke="rgb(104,130,152)" stroke-width="1" opacity="1" d="M 124.5 40 L 146 40.5 L 124.5 41 L 124.5 40 Z " /><path fill="rgb(104,130,152)" stroke="rgb(104,130,152)" stroke-width="1" opacity="1" d="M 320.5 40 L 323 40.5 L 320.5 41 L 320.5 40 Z " /><path fill="rgb(104,130,152)" stroke="rgb(104,130,152)" stroke-width="1" opacity="1" d="M 114.5 41 L 117 41.5 L 114.5 42 L 114.5 41 Z " /><path fill="rgb(104,130,152)" stroke="rgb(104,130,152)" stroke-width="1" opacity="1" d="M 154.5 41 L 157 41.5 L 154.5 42 L 154.5 41 Z " /><path fill="rgb(104,130,152)" stroke="rgb(104,130,152)" stroke-width="1" opacity="1" d="M 169.5 43 L 172 43.5 L 169.5 44 L 169.5 43 Z " /><path fill="rgb(104,130,152)" stroke="rgb(104,130,152)" stroke-width="1" opacity="1" d="M 518.5 48 L 519.5 50 L 518.5 48 Z " /><path fill="rgb(104,130,152)" stroke="rgb(104,130,152)" stroke-width="1" opacity="1" d="M 50.5 52 L 46.5 57 L 50.5 52 Z " /><path fill="rgb(104,130,152)" stroke="rgb(104,130,152)" stroke-width="1" opacity="1" d="M 399.5 52 L 400.5 54 L 399.5 52 Z " /><path fill="rgb(104,130,152)" stroke="rgb(104,130,152)" stroke-width="1" opacity="1" d="M 523.5 52 L 525.5 55 L 523.5 52 Z " /><path fill="rgb(104,130,152)" stroke="rgb(104,130,152)" stroke-width="1" opacity="1" d="M 214.5 54 L 208.5 61 L 214.5 54 Z " /><path fill="rgb(104,130,152)" stroke="rgb(104,130,152)" stroke-width="1" opacity="1" d="M 402.5 54 L 403.5 56 L 402.5 54 Z " /><path fill="rgb(104,130,152)" stroke="rgb(104,130,152)" stroke-width="1" opacity="1" d="M 73.5 55 L 72.5 57 L 73.5 55 Z " /><path fill="rgb(104,130,152)" stroke="rgb(104,130,152)" stroke-width="1" opacity="1" d="M 499.5 55 L 500.5 57 L 499.5 55 Z " /><path fill="rgb(104,130,152)" stroke="rgb(104,130,152)" stroke-width="1" opacity="1" d="M 406.5 57 L 407.5 59 L 406.5 57 Z " /><path fill="rgb(104,130,152)" stroke="rgb(104,130,152)" stroke-width="1" opacity="1" d="M 502.5 57 L 503.5 59 L 502.5 57 Z " /><path fill="rgb(104,130,152)" stroke="rgb(104,130,152)" stroke-width="1" opacity="1" d="M 235.5 58 L 234.5 60 L 235.5 58 Z " /><path fill="rgb(104,130,152)" stroke="rgb(104,130,152)" stroke-width="1" opacity="1" d="M 66.5 60 L 57.5 70 L 66.5 60 Z " /><path fill="rgb(104,130,152)" stroke="rgb(104,130,152)" stroke-width="1" opacity="1" d="M 380.5 60 L 381.5 62 L 380.5 60 Z " /><path fill="rgb(104,130,152)" stroke="rgb(104,130,152)" stroke-width="1" opacity="1" d="M 506.5 60 L 507.5 62 L 506.5 60 Z " /><path fill="rgb(104,130,152)" stroke="rgb(104,130,152)" stroke-width="1" opacity="1" d="M 42.5 61 L 41.5 63 L 42.5 61 Z " /><path fill="rgb(104,130,152)" stroke="rgb(104,130,152)" stroke-width="1" opacity="1" d="M 411.5 61 L 413.5 64 L 411.5 61 Z " /><path fill="rgb(104,130,152)" stroke="rgb(104,130,152)" stroke-width="1" opacity="1" d="M 229.5 63 L 222.5 71 L 229.5 63 Z " /><path fill="rgb(104,130,152)" stroke="rgb(104,130,152)" stroke-width="1" opacity="1" d="M 510.5 63 L 511.5 65 L 510.5 63 Z " /><path fill="rgb(104,130,152)" stroke="rgb(104,130,152)" stroke-width="1" opacity="1" d="M 205.5 64 L 204.5 66 L 205.5 64 Z " /><path fill="rgb(104,130,152)" stroke="rgb(104,130,152)" stroke-width="1" opacity="1" d="M 418.5 67 L 432.5 82 L 418.5 67 Z " /><path fill="rgb(104,130,152)" stroke="rgb(104,130,152)" stroke-width="1" opacity="1" d="M 517.5 69 L 524.5 77 L 517.5 69 Z " /><path fill="rgb(104,130,152)" stroke="rgb(104,130,152)" stroke-width="1" opacity="1" d="M 540.5 69 L 541.5 71 L 540.5 69 Z " /><path fill="rgb(104,130,152)" stroke="rgb(104,130,152)" stroke-width="1" opacity="1" d="M 396.5 71 L 397.5 73 L 396.5 71 Z " /><path fill="rgb(104,130,152)" stroke="rgb(104,130,152)" stroke-width="1" opacity="1" d="M 54.5 73 L 53.5 75 L 54.5 73 Z " /><path fill="rgb(104,130,152)" stroke="rgb(104,130,152)" stroke-width="1" opacity="1" d="M 400.5 74 L 402.5 77 L 400.5 74 Z " /><path fill="rgb(104,130,152)" stroke="rgb(104,130,152)" stroke-width="1" opacity="1" d="M 218.5 75 L 217.5 77 L 218.5 75 Z " /><path fill="rgb(104,130,152)" stroke="rgb(104,130,152)" stroke-width="1" opacity="1" d="M 545.5 75 L 546.5 77 L 545.5 75 Z " /><path fill="rgb(104,130,152)" stroke="rgb(104,130,152)" stroke-width="1" opacity="1" d="M 547.5 78 L 548.5 80 L 547.5 78 Z " /><path fill="rgb(104,130,152)" stroke="rgb(104,130,152)" stroke-width="1" opacity="1" d="M 215.5 79 L 214.5 81 L 215.5 79 Z " /><path fill="rgb(104,130,152)" stroke="rgb(104,130,152)" stroke-width="1" opacity="1" d="M 407.5 80 L 419.5 93 L 407.5 80 Z " /><path fill="rgb(104,130,152)" stroke="rgb(104,130,152)" stroke-width="1" opacity="1" d="M 528.5 81 L 530.5 84 L 528.5 81 Z " /><path fill="rgb(104,130,152)" stroke="rgb(104,130,152)" stroke-width="1" opacity="1" d="M 436.5 86 L 438.5 89 L 436.5 86 Z " /><path fill="rgb(104,130,152)" stroke="rgb(104,130,152)" stroke-width="1" opacity="1" d="M 441.5 92 L 442.5 94 L 441.5 92 Z " /><path fill="rgb(104,130,152)" stroke="rgb(104,130,152)" stroke-width="1" opacity="1" d="M 444.5 96 L 445.5 98 L 444.5 96 Z " /><path fill="rgb(104,130,152)" stroke="rgb(104,130,152)" stroke-width="1" opacity="1" d="M 423.5 97 L 425.5 100 L 423.5 97 Z " /><path fill="rgb(104,130,152)" stroke="rgb(104,130,152)" stroke-width="1" opacity="1" d="M 428.5 103 L 429.5 105 L 428.5 103 Z " /><path fill="rgb(104,130,152)" stroke="rgb(104,130,152)" stroke-width="1" opacity="1" d="M 449.5 103 L 450.5 105 L 449.5 103 Z " /><path fill="rgb(104,130,152)" stroke="rgb(104,130,152)" stroke-width="1" opacity="1" d="M 451.5 106 L 452.5 108 L 451.5 106 Z " /><path fill="rgb(104,130,152)" stroke="rgb(104,130,152)" stroke-width="1" opacity="1" d="M 431.5 107 L 432.5 109 L 431.5 107 Z " /><path fill="rgb(104,130,152)" stroke="rgb(104,130,152)" stroke-width="1" opacity="1" d="M 539.5 109 L 540 113.5 L 539 113.5 L 539.5 109 Z " /><path fill="rgb(104,130,152)" stroke="rgb(104,130,152)" stroke-width="1" opacity="1" d="M 556.5 111 L 557 129.5 L 556 129.5 L 556.5 111 Z " /><path fill="rgb(104,130,152)" stroke="rgb(104,130,152)" stroke-width="1" opacity="1" d="M 35.5 122 L 36 124.5 L 35 124.5 L 35.5 122 Z " /><path fill="rgb(104,130,152)" stroke="rgb(104,130,152)" stroke-width="1" opacity="1" d="M 539.5 126 L 540 131.5 L 539 131.5 L 539.5 126 Z " /><path fill="rgb(104,130,152)" stroke="rgb(104,130,152)" stroke-width="1" opacity="1" d="M 34.5 130 L 35 134.5 L 34 134.5 L 34.5 130 Z " /><path fill="rgb(104,130,152)" stroke="rgb(104,130,152)" stroke-width="1" opacity="1" d="M 17.5 132 L 18 135.5 L 17 135.5 L 17.5 132 Z " /><path fill="rgb(104,130,152)" stroke="rgb(104,130,152)" stroke-width="1" opacity="1" d="M 538.5 139 L 539 141.5 L 538 141.5 L 538.5 139 Z " /><path fill="rgb(104,130,152)" stroke="rgb(104,130,152)" stroke-width="1" opacity="1" d="M 537.5 147 L 538 149.5 L 537 149.5 L 537.5 147 Z " /><path fill="rgb(104,130,152)" stroke="rgb(104,130,152)" stroke-width="1" opacity="1" d="M 456.5 153 L 457 155 L 453 154.5 L 456.5 153 Z " /><path fill="rgb(104,130,152)" stroke="rgb(104,130,152)" stroke-width="1" opacity="1" d="M 429.5 154 L 432 154.5 L 429.5 155 L 429.5 154 Z " /><path fill="rgb(104,130,152)" stroke="rgb(104,130,152)" stroke-width="1" opacity="1" d="M 169.5 156 L 170 158.5 L 169 158.5 L 169.5 156 Z " /><path fill="rgb(104,130,152)" stroke="rgb(104,130,152)" stroke-width="1" opacity="1" d="M 226.5 157 L 229 157.5 L 226.5 158 L 226.5 157 Z " /><path fill="rgb(104,130,152)" stroke="rgb(104,130,152)" stroke-width="1" opacity="1" d="M 245.5 157 L 248 157.5 L 245.5 158 L 245.5 157 Z " /><path fill="rgb(104,130,152)" stroke="rgb(104,130,152)" stroke-width="1" opacity="1" d="M 405.5 162 L 404.5 164 L 405.5 162 Z " /><path fill="rgb(104,130,152)" stroke="rgb(104,130,152)" stroke-width="1" opacity="1" d="M 17.5 164 L 18 167.5 L 17 167.5 L 17.5 164 Z " /><path fill="rgb(104,130,152)" stroke="rgb(104,130,152)" stroke-width="1" opacity="1" d="M 168.5 164 L 169 167.5 L 168 167.5 L 168.5 164 Z " /><path fill="rgb(104,130,152)" stroke="rgb(104,130,152)" stroke-width="1" opacity="1" d="M 402.5 164 L 398.5 169 L 402.5 164 Z " /><path fill="rgb(104,130,152)" stroke="rgb(104,130,152)" stroke-width="1" opacity="1" d="M 34.5 166 L 35 168.5 L 34 168.5 L 34.5 166 Z " /><path fill="rgb(104,130,152)" stroke="rgb(104,130,152)" stroke-width="1" opacity="1" d="M 185.5 166 L 186 168.5 L 185 168.5 L 185.5 166 Z " /><path fill="rgb(104,130,152)" stroke="rgb(104,130,152)" stroke-width="1" opacity="1" d="M 268.5 167 L 272.5 172 L 268.5 167 Z " /><path fill="rgb(104,130,152)" stroke="rgb(104,130,152)" stroke-width="1" opacity="1" d="M 396.5 170 L 395.5 172 L 396.5 170 Z " /><path fill="rgb(104,130,152)" stroke="rgb(104,130,152)" stroke-width="1" opacity="1" d="M 452.5 171 L 456 171.5 L 452.5 172 L 452.5 171 Z " /><path fill="rgb(104,130,152)" stroke="rgb(104,130,152)" stroke-width="1" opacity="1" d="M 18.5 174 L 19 176.5 L 18 176.5 L 18.5 174 Z " /><path fill="rgb(104,130,152)" stroke="rgb(104,130,152)" stroke-width="1" opacity="1" d="M 35.5 174 L 36 176.5 L 35 176.5 L 35.5 174 Z " /><path fill="rgb(104,130,152)" stroke="rgb(104,130,152)" stroke-width="1" opacity="1" d="M 167.5 176 L 168 184.5 L 167 184.5 L 167.5 176 Z " /><path fill="rgb(104,130,152)" stroke="rgb(104,130,152)" stroke-width="1" opacity="1" d="M 413.5 177 L 408.5 183 L 413.5 177 Z " /><path fill="rgb(104,130,152)" stroke="rgb(104,130,152)" stroke-width="1" opacity="1" d="M 429.5 178 L 437 178.5 L 429.5 179 L 429.5 178 Z " /><path fill="rgb(104,130,152)" stroke="rgb(104,130,152)" stroke-width="1" opacity="1" d="M 458.5 179 L 459 181.5 L 458 181.5 L 458.5 179 Z " /><path fill="rgb(104,130,152)" stroke="rgb(104,130,152)" stroke-width="1" opacity="1" d="M 257.5 180 L 258.5 182 L 257.5 180 Z " /><path fill="rgb(104,130,152)" stroke="rgb(104,130,152)" stroke-width="1" opacity="1" d="M 442.5 180 L 443.5 182 L 442.5 180 Z " /><path fill="rgb(104,130,152)" stroke="rgb(104,130,152)" stroke-width="1" opacity="1" d="M 475.5 180 L 476 182.5 L 475 182.5 L 475.5 180 Z " /><path fill="rgb(104,130,152)" stroke="rgb(104,130,152)" stroke-width="1" opacity="1" d="M 36.5 181 L 37 183.5 L 36 183.5 L 36.5 181 Z " /><path fill="rgb(104,130,152)" stroke="rgb(104,130,152)" stroke-width="1" opacity="1" d="M 419.5 181 L 418.5 183 L 419.5 181 Z " /><path fill="rgb(104,130,152)" stroke="rgb(104,130,152)" stroke-width="1" opacity="1" d="M 237.5 182 L 241 182.5 L 237.5 183 L 237.5 182 Z " /><path fill="rgb(104,130,152)" stroke="rgb(104,130,152)" stroke-width="1" opacity="1" d="M 260.5 184 L 261.5 186 L 260.5 184 Z " /><path fill="rgb(104,130,152)" stroke="rgb(104,130,152)" stroke-width="1" opacity="1" d="M 457.5 187 L 458 189.5 L 457 189.5 L 457.5 187 Z " /><path fill="rgb(104,130,152)" stroke="rgb(104,130,152)" stroke-width="1" opacity="1" d="M 416.5 189 L 417.5 191 L 416.5 189 Z " /><path fill="rgb(104,130,152)" stroke="rgb(104,130,152)" stroke-width="1" opacity="1" d="M 441.5 189 L 439.5 192 L 441.5 189 Z " /><path fill="rgb(104,130,152)" stroke="rgb(104,130,152)" stroke-width="1" opacity="1" d="M 474.5 189 L 475 191.5 L 474 191.5 L 474.5 189 Z " /><path fill="rgb(104,130,152)" stroke="rgb(104,130,152)" stroke-width="1" opacity="1" d="M 404.5 191 L 405 193.5 L 404 193.5 L 404.5 191 Z " /><path fill="rgb(104,130,152)" stroke="rgb(104,130,152)" stroke-width="1" opacity="1" d="M 167.5 192 L 168 197.5 L 167 197.5 L 167.5 192 Z " /><path fill="rgb(104,130,152)" stroke="rgb(104,130,152)" stroke-width="1" opacity="1" d="M 419.5 192 L 420.5 194 L 419.5 192 Z " /><path fill="rgb(104,130,152)" stroke="rgb(104,130,152)" stroke-width="1" opacity="1" d="M 184.5 193 L 185 196.5 L 184 196.5 L 184.5 193 Z " /><path fill="rgb(104,130,152)" stroke="rgb(104,130,152)" stroke-width="1" opacity="1" d="M 229.5 195 L 232.5 199 L 229.5 195 Z " /><path fill="rgb(104,130,152)" stroke="rgb(104,130,152)" stroke-width="1" opacity="1" d="M 256.5 196 L 253.5 200 L 256.5 196 Z " /><path fill="rgb(104,130,152)" stroke="rgb(104,130,152)" stroke-width="1" opacity="1" d="M 473.5 196 L 474 198.5 L 473 198.5 L 473.5 196 Z " /><path fill="rgb(104,130,152)" stroke="rgb(104,130,152)" stroke-width="1" opacity="1" d="M 455.5 201 L 456 203.5 L 455 203.5 L 455.5 201 Z " /><path fill="rgb(104,130,152)" stroke="rgb(104,130,152)" stroke-width="1" opacity="1" d="M 185.5 208 L 186 221.5 L 185 221.5 L 185.5 208 Z " /><path fill="rgb(104,130,152)" stroke="rgb(104,130,152)" stroke-width="1" opacity="1" d="M 454.5 209 L 455 211.5 L 454 211.5 L 454.5 209 Z " /><path fill="rgb(104,130,152)" stroke="rgb(104,130,152)" stroke-width="1" opacity="1" d="M 168.5 210 L 169 227.5 L 168 227.5 L 168.5 210 Z " /><path fill="rgb(104,130,152)" stroke="rgb(104,130,152)" stroke-width="1" opacity="1" d="M 387.5 210 L 388 212.5 L 387 212.5 L 387.5 210 Z " /><path fill="rgb(104,130,152)" stroke="rgb(104,130,152)" stroke-width="1" opacity="1" d="M 471.5 210 L 472 213.5 L 471 213.5 L 471.5 210 Z " /><path fill="rgb(104,130,152)" stroke="rgb(104,130,152)" stroke-width="1" opacity="1" d="M 268.5 211 L 269 213.5 L 268 213.5 L 268.5 211 Z " /><path fill="rgb(104,130,152)" stroke="rgb(104,130,152)" stroke-width="1" opacity="1" d="M 269.5 218 L 270 220.5 L 269 220.5 L 269.5 218 Z " /><path fill="rgb(104,130,152)" stroke="rgb(104,130,152)" stroke-width="1" opacity="1" d="M 453.5 222 L 454 230.5 L 453 230.5 L 453.5 222 Z " /><path fill="rgb(104,130,152)" stroke="rgb(104,130,152)" stroke-width="1" opacity="1" d="M 470.5 223 L 471 229.5 L 470 229.5 L 470.5 223 Z " /><path fill="rgb(104,130,152)" stroke="rgb(104,130,152)" stroke-width="1" opacity="1" d="M 287.5 225 L 288 227.5 L 287 227.5 L 287.5 225 Z " /><path fill="rgb(104,130,152)" stroke="rgb(104,130,152)" stroke-width="1" opacity="1" d="M 270.5 226 L 271 229.5 L 270 229.5 L 270.5 226 Z " /><path fill="rgb(104,130,152)" stroke="rgb(104,130,152)" stroke-width="1" opacity="1" d="M 168.5 229 L 169 241.5 L 168 241.5 L 168.5 229 Z " /><path fill="rgb(104,130,152)" stroke="rgb(104,130,152)" stroke-width="1" opacity="1" d="M 185.5 231 L 186 242.5 L 185 242.5 L 185.5 231 Z " /><path fill="rgb(104,130,152)" stroke="rgb(104,130,152)" stroke-width="1" opacity="1" d="M 288.5 237 L 289 257.5 L 288 257.5 L 288.5 237 Z " /><path fill="rgb(104,130,152)" stroke="rgb(104,130,152)" stroke-width="1" opacity="1" d="M 271.5 238 L 272 256.5 L 271 256.5 L 271.5 238 Z " /><path fill="rgb(104,130,152)" stroke="rgb(104,130,152)" stroke-width="1" opacity="1" d="M 471.5 239 L 472 241.5 L 471 241.5 L 471.5 239 Z " /><path fill="rgb(104,130,152)" stroke="rgb(104,130,152)" stroke-width="1" opacity="1" d="M 454.5 240 L 455 243.5 L 454 243.5 L 454.5 240 Z " /><path fill="rgb(104,130,152)" stroke="rgb(104,130,152)" stroke-width="1" opacity="1" d="M 472.5 249 L 473 251.5 L 472 251.5 L 472.5 249 Z " /><path fill="rgb(104,130,152)" stroke="rgb(104,130,152)" stroke-width="1" opacity="1" d="M 455.5 250 L 456 252.5 L 455 252.5 L 455.5 250 Z " /><path fill="rgb(104,130,152)" stroke="rgb(104,130,152)" stroke-width="1" opacity="1" d="M 167.5 251 L 168 255.5 L 167 255.5 L 167.5 251 Z " /><path fill="rgb(104,130,152)" stroke="rgb(104,130,152)" stroke-width="1" opacity="1" d="M 184.5 253 L 185 256.5 L 184 256.5 L 184.5 253 Z " /><path fill="rgb(104,130,152)" stroke="rgb(104,130,152)" stroke-width="1" opacity="1" d="M 473.5 257 L 474 259.5 L 473 259.5 L 473.5 257 Z " /><path fill="rgb(104,130,152)" stroke="rgb(104,130,152)" stroke-width="1" opacity="1" d="M 456.5 259 L 457 261.5 L 456 261.5 L 456.5 259 Z " /><path fill="rgb(104,130,152)" stroke="rgb(104,130,152)" stroke-width="1" opacity="1" d="M 166.5 261 L 167 263.5 L 166 263.5 L 166.5 261 Z " /><path fill="rgb(104,130,152)" stroke="rgb(104,130,152)" stroke-width="1" opacity="1" d="M 183.5 262 L 184 265.5 L 183 265.5 L 183.5 262 Z " /><path fill="rgb(104,130,152)" stroke="rgb(104,130,152)" stroke-width="1" opacity="1" d="M 270.5 264 L 271 266.5 L 270 266.5 L 270.5 264 Z " /><path fill="rgb(104,130,152)" stroke="rgb(104,130,152)" stroke-width="1" opacity="1" d="M 474.5 268 L 475 271.5 L 474 271.5 L 474.5 268 Z " /><path fill="rgb(104,130,152)" stroke="rgb(104,130,152)" stroke-width="1" opacity="1" d="M 457.5 269 L 458 272.5 L 457 272.5 L 457.5 269 Z " /><path fill="rgb(104,130,152)" stroke="rgb(104,130,152)" stroke-width="1" opacity="1" d="M 165.5 271 L 166 274.5 L 165 274.5 L 165.5 271 Z " /><path fill="rgb(104,130,152)" stroke="rgb(104,130,152)" stroke-width="1" opacity="1" d="M 182.5 272 L 183 275.5 L 182 275.5 L 182.5 272 Z " /><path fill="rgb(104,130,152)" stroke="rgb(104,130,152)" stroke-width="1" opacity="1" d="M 182.5 283 L 183 287.5 L 182 287.5 L 182.5 283 Z " /><path fill="rgb(104,130,152)" stroke="rgb(104,130,152)" stroke-width="1" opacity="1" d="M 165.5 284 L 166 288.5 L 165 288.5 L 165.5 284 Z " /><path fill="rgb(104,130,152)" stroke="rgb(104,130,152)" stroke-width="1" opacity="1" d="M 457.5 291 L 458 294.5 L 457 294.5 L 457.5 291 Z " /><path fill="rgb(104,130,152)" stroke="rgb(104,130,152)" stroke-width="1" opacity="1" d="M 474.5 293 L 475 296.5 L 474 296.5 L 474.5 293 Z " /><path fill="rgb(104,130,152)" stroke="rgb(104,130,152)" stroke-width="1" opacity="1" d="M 196.5 322 L 197.5 324 L 196.5 322 Z " /><path fill="rgb(104,130,152)" stroke="rgb(104,130,152)" stroke-width="1" opacity="1" d="M 178.5 326 L 179.5 328 L 178.5 326 Z " /><path fill="rgb(104,130,152)" stroke="rgb(104,130,152)" stroke-width="1" opacity="1" d="M 469.5 328 L 468.5 330 L 469.5 328 Z " /><path fill="rgb(104,130,152)" stroke="rgb(104,130,152)" stroke-width="1" opacity="1" d="M 183.5 333 L 184.5 335 L 183.5 333 Z " /><path fill="rgb(104,130,152)" stroke="rgb(104,130,152)" stroke-width="1" opacity="1" d="M 207.5 333 L 208.5 335 L 207.5 333 Z " /><path fill="rgb(104,130,152)" stroke="rgb(104,130,152)" stroke-width="1" opacity="1" d="M 463.5 334 L 466 334.5 Q 463.9 337.8 463.5 334 Z " /><path fill="rgb(104,130,152)" stroke="rgb(104,130,152)" stroke-width="1" opacity="1" d="M 446.5 340 L 447.5 342 L 446.5 340 Z " /><path fill="rgb(104,130,152)" stroke="rgb(104,130,152)" stroke-width="1" opacity="1" d="M 449.5 344 L 451.5 347 L 449.5 344 Z " /><path fill="rgb(104,130,152)" stroke="rgb(104,130,152)" stroke-width="1" opacity="1" d="M 194.5 345 L 189.5 351 L 194.5 345 Z " /><path fill="rgb(104,130,152)" stroke="rgb(104,130,152)" stroke-width="1" opacity="1" d="M 243.5 345 L 242.5 347 L 239 346.5 L 243.5 345 Z " /><path fill="rgb(104,130,152)" stroke="rgb(104,130,152)" stroke-width="1" opacity="1" d="M 474.5 351 L 475.5 353 L 474.5 351 Z " /><path fill="rgb(104,130,152)" stroke="rgb(104,130,152)" stroke-width="1" opacity="1" d="M 541.5 351 L 546 351.5 L 541.5 352 L 541.5 351 Z " /><path fill="rgb(104,130,152)" stroke="rgb(104,130,152)" stroke-width="1" opacity="1" d="M 554.5 354 L 555.5 356 L 554.5 354 Z " /><path fill="rgb(104,130,152)" stroke="rgb(104,130,152)" stroke-width="1" opacity="1" d="M 506.5 356 L 510 356.5 L 506.5 357 L 506.5 356 Z " /><path fill="rgb(104,130,152)" stroke="rgb(104,130,152)" stroke-width="1" opacity="1" d="M 183.5 357 L 179.5 362 L 183.5 357 Z " /><path fill="rgb(104,130,152)" stroke="rgb(104,130,152)" stroke-width="1" opacity="1" d="M 203.5 360 L 199.5 365 L 203.5 360 Z " /><path fill="rgb(104,130,152)" stroke="rgb(104,130,152)" stroke-width="1" opacity="1" d="M 436.5 360 L 435.5 362 L 436.5 360 Z " /><path fill="rgb(104,130,152)" stroke="rgb(104,130,152)" stroke-width="1" opacity="1" d="M 240.5 363 Q 242.8 362.3 242 364.5 L 240.5 363 Z " /><path fill="rgb(104,130,152)" stroke="rgb(104,130,152)" stroke-width="1" opacity="1" d="M 434.5 363 L 433.5 365 L 434.5 363 Z " /><path fill="rgb(104,130,152)" stroke="rgb(104,130,152)" stroke-width="1" opacity="1" d="M 466.5 366 L 467.5 368 L 466.5 366 Z " /><path fill="rgb(104,130,152)" stroke="rgb(104,130,152)" stroke-width="1" opacity="1" d="M 174.5 367 L 171.5 371 L 174.5 367 Z " /><path fill="rgb(104,130,152)" stroke="rgb(104,130,152)" stroke-width="1" opacity="1" d="M 238.5 368 L 237.5 370 L 238.5 368 Z " /><path fill="rgb(104,130,152)" stroke="rgb(104,130,152)" stroke-width="1" opacity="1" d="M 534.5 369 L 537 369.5 L 533 372.5 Q 536.1 370.7 534.5 369 Z " /><path fill="rgb(104,130,152)" stroke="rgb(104,130,152)" stroke-width="1" opacity="1" d="M 193.5 371 L 190.5 375 L 193.5 371 Z " /><path fill="rgb(104,130,152)" stroke="rgb(104,130,152)" stroke-width="1" opacity="1" d="M 449.5 371 L 448.5 373 L 449.5 371 Z " /><path fill="rgb(104,130,152)" stroke="rgb(104,130,152)" stroke-width="1" opacity="1" d="M 523.5 371 L 526 371.5 L 523.5 372 L 523.5 371 Z " /><path fill="rgb(104,130,152)" stroke="rgb(104,130,152)" stroke-width="1" opacity="1" d="M 234.5 373 L 232.5 376 L 234.5 373 Z " /><path fill="rgb(104,130,152)" stroke="rgb(104,130,152)" stroke-width="1" opacity="1" d="M 489.5 373 L 495 373.5 L 489.5 374 L 489.5 373 Z " /><path fill="rgb(104,130,152)" stroke="rgb(104,130,152)" stroke-width="1" opacity="1" d="M 500.5 373 L 508 373.5 L 500.5 374 L 500.5 373 Z " /><path fill="rgb(104,130,152)" stroke="rgb(104,130,152)" stroke-width="1" opacity="1" d="M 167.5 375 L 164.5 379 L 167.5 375 Z " /><path fill="rgb(104,130,152)" stroke="rgb(104,130,152)" stroke-width="1" opacity="1" d="M 254.5 375 L 252.5 378 L 254.5 375 Z " /><path fill="rgb(104,130,152)" stroke="rgb(104,130,152)" stroke-width="1" opacity="1" d="M 554.5 375 L 552.5 378 L 554.5 375 Z " /><path fill="rgb(104,130,152)" stroke="rgb(104,130,152)" stroke-width="1" opacity="1" d="M 429.5 377 L 430 379.5 L 429 379.5 L 429.5 377 Z " /><path fill="rgb(104,130,152)" stroke="rgb(104,130,152)" stroke-width="1" opacity="1" d="M 446.5 378 L 447 380.5 L 446 380.5 L 446.5 378 Z " /><path fill="rgb(104,130,152)" stroke="rgb(104,130,152)" stroke-width="1" opacity="1" d="M 184.5 381 L 182.5 384 L 184.5 381 Z " /><path fill="rgb(104,130,152)" stroke="rgb(104,130,152)" stroke-width="1" opacity="1" d="M 249.5 381 L 248.5 383 L 249.5 381 Z " /><path fill="rgb(104,130,152)" stroke="rgb(104,130,152)" stroke-width="1" opacity="1" d="M 548.5 381 L 546.5 384 L 548.5 381 Z " /><path fill="rgb(104,130,152)" stroke="rgb(104,130,152)" stroke-width="1" opacity="1" d="M 161.5 382 L 158.5 386 L 161.5 382 Z " /><path fill="rgb(104,130,152)" stroke="rgb(104,130,152)" stroke-width="1" opacity="1" d="M 296.5 382 L 297 385.5 L 296 385.5 L 296.5 382 Z " /><path fill="rgb(104,130,152)" stroke="rgb(104,130,152)" stroke-width="1" opacity="1" d="M 245.5 386 L 238.5 394 L 245.5 386 Z " /><path fill="rgb(104,130,152)" stroke="rgb(104,130,152)" stroke-width="1" opacity="1" d="M 542.5 386 L 541.5 388 L 542.5 386 Z " /><path fill="rgb(104,130,152)" stroke="rgb(104,130,152)" stroke-width="1" opacity="1" d="M 178.5 388 L 176.5 391 L 178.5 388 Z " /><path fill="rgb(104,130,152)" stroke="rgb(104,130,152)" stroke-width="1" opacity="1" d="M 104.5 389 L 105.5 391 L 104.5 389 Z " /><path fill="rgb(104,130,152)" stroke="rgb(104,130,152)" stroke-width="1" opacity="1" d="M 155.5 389 L 153.5 392 L 155.5 389 Z " /><path fill="rgb(104,130,152)" stroke="rgb(104,130,152)" stroke-width="1" opacity="1" d="M 85.5 391 L 86.5 393 L 85.5 391 Z " /><path fill="rgb(104,130,152)" stroke="rgb(104,130,152)" stroke-width="1" opacity="1" d="M 462.5 392 L 472 392.5 L 462.5 393 L 462.5 392 Z " /><path fill="rgb(104,130,152)" stroke="rgb(104,130,152)" stroke-width="1" opacity="1" d="M 107.5 393 L 111.5 398 L 107.5 393 Z " /><path fill="rgb(104,130,152)" stroke="rgb(104,130,152)" stroke-width="1" opacity="1" d="M 274.5 393 L 273.5 395 L 274.5 393 Z " /><path fill="rgb(104,130,152)" stroke="rgb(104,130,152)" stroke-width="1" opacity="1" d="M 150.5 395 L 143.5 403 L 150.5 395 Z " /><path fill="rgb(104,130,152)" stroke="rgb(104,130,152)" stroke-width="1" opacity="1" d="M 171.5 396 L 170.5 398 L 171.5 396 Z " /><path fill="rgb(104,130,152)" stroke="rgb(104,130,152)" stroke-width="1" opacity="1" d="M 180.5 396 L 176.5 401 L 180.5 396 Z " /><path fill="rgb(104,130,152)" stroke="rgb(104,130,152)" stroke-width="1" opacity="1" d="M 89.5 397 L 90.5 399 L 89.5 397 Z " /><path fill="rgb(104,130,152)" stroke="rgb(104,130,152)" stroke-width="1" opacity="1" d="M 428.5 397 L 429 399.5 L 428 399.5 L 428.5 397 Z " /><path fill="rgb(104,130,152)" stroke="rgb(104,130,152)" stroke-width="1" opacity="1" d="M 114.5 400 L 116.5 403 L 114.5 400 Z " /><path fill="rgb(104,130,152)" stroke="rgb(104,130,152)" stroke-width="1" opacity="1" d="M 92.5 401 L 93.5 403 L 92.5 401 Z " /><path fill="rgb(104,130,152)" stroke="rgb(104,130,152)" stroke-width="1" opacity="1" d="M 266.5 401 L 264.5 404 L 266.5 401 Z " /><path fill="rgb(104,130,152)" stroke="rgb(104,130,152)" stroke-width="1" opacity="1" d="M 166.5 402 L 165.5 404 L 166.5 402 Z " /><path fill="rgb(104,130,152)" stroke="rgb(104,130,152)" stroke-width="1" opacity="1" d="M 140.5 404 L 139.5 406 L 140.5 404 Z " /><path fill="rgb(104,130,152)" stroke="rgb(104,130,152)" stroke-width="1" opacity="1" d="M 261.5 405 L 260.5 407 L 261.5 405 Z " /><path fill="rgb(104,130,152)" stroke="rgb(104,130,152)" stroke-width="1" opacity="1" d="M 427.5 406 L 428 408.5 L 427 408.5 L 427.5 406 Z " /><path fill="rgb(104,130,152)" stroke="rgb(104,130,152)" stroke-width="1" opacity="1" d="M 98.5 408 L 102.5 413 L 98.5 408 Z " /><path fill="rgb(104,130,152)" stroke="rgb(104,130,152)" stroke-width="1" opacity="1" d="M 481.5 408 L 484 408.5 L 481.5 409 L 481.5 408 Z " /><path fill="rgb(104,130,152)" stroke="rgb(104,130,152)" stroke-width="1" opacity="1" d="M 160.5 409 L 156.5 414 L 160.5 409 Z " /><path fill="rgb(104,130,152)" stroke="rgb(104,130,152)" stroke-width="1" opacity="1" d="M 278.5 413 L 277.5 415 L 278.5 413 Z " /><path fill="rgb(104,130,152)" stroke="rgb(104,130,152)" stroke-width="1" opacity="1" d="M 443.5 414 L 444 416.5 L 443 416.5 L 443.5 414 Z " /><path fill="rgb(104,130,152)" stroke="rgb(104,130,152)" stroke-width="1" opacity="1" d="M 213.5 415 L 216 415.5 L 213.5 416 L 213.5 415 Z " /><path fill="rgb(104,130,152)" stroke="rgb(104,130,152)" stroke-width="1" opacity="1" d="M 235.5 415 L 238 415.5 L 235.5 416 L 235.5 415 Z " /><path fill="rgb(104,130,152)" stroke="rgb(104,130,152)" stroke-width="1" opacity="1" d="M 426.5 415 L 427 417.5 L 426 417.5 L 426.5 415 Z " /><path fill="rgb(104,130,152)" stroke="rgb(104,130,152)" stroke-width="1" opacity="1" d="M 107.5 416 L 108.5 418 L 107.5 416 Z " /><path fill="rgb(104,130,152)" stroke="rgb(104,130,152)" stroke-width="1" opacity="1" d="M 177.5 417 L 181.5 422 L 177.5 417 Z " /><path fill="rgb(104,130,152)" stroke="rgb(104,130,152)" stroke-width="1" opacity="1" d="M 442.5 423 L 443 425.5 L 442 425.5 L 442.5 423 Z " /><path fill="rgb(104,130,152)" stroke="rgb(104,130,152)" stroke-width="1" opacity="1" d="M 425.5 424 L 426 426.5 L 425 426.5 L 425.5 424 Z " /><path fill="rgb(104,130,152)" stroke="rgb(104,130,152)" stroke-width="1" opacity="1" d="M 214.5 432 L 217 432.5 L 214.5 433 L 214.5 432 Z " /><path fill="rgb(104,130,152)" stroke="rgb(104,130,152)" stroke-width="1" opacity="1" d="M 424.5 432 L 425 434.5 L 424 434.5 L 424.5 432 Z " /><path fill="rgb(104,130,152)" stroke="rgb(104,130,152)" stroke-width="1" opacity="1" d="M 423.5 440 L 424 442.5 L 423 442.5 L 423.5 440 Z " /><path fill="rgb(104,130,152)" stroke="rgb(104,130,152)" stroke-width="1" opacity="1" d="M 422.5 448 L 423 450.5 L 422 450.5 L 422.5 448 Z " /><path fill="rgb(104,130,152)" stroke="rgb(104,130,152)" stroke-width="1" opacity="1" d="M 279.5 456 L 280 466.5 L 279 466.5 L 279.5 456 Z " /><path fill="rgb(104,130,152)" stroke="rgb(104,130,152)" stroke-width="1" opacity="1" d="M 421.5 456 L 422 458.5 L 421 458.5 L 421.5 456 Z " /><path fill="rgb(104,130,152)" stroke="rgb(104,130,152)" stroke-width="1" opacity="1" d="M 296.5 462 L 297 471.5 L 296 471.5 L 296.5 462 Z " /><path fill="rgb(104,130,152)" stroke="rgb(104,130,152)" stroke-width="1" opacity="1" d="M 420.5 464 L 421 466.5 L 420 466.5 L 420.5 464 Z " /><path fill="rgb(104,130,152)" stroke="rgb(104,130,152)" stroke-width="1" opacity="1" d="M 419.5 471 L 420 473.5 L 419 473.5 L 419.5 471 Z " /><path fill="rgb(104,130,152)" stroke="rgb(104,130,152)" stroke-width="1" opacity="1" d="M 436.5 471 L 437 473.5 L 436 473.5 L 436.5 471 Z " /><path fill="rgb(104,130,152)" stroke="rgb(104,130,152)" stroke-width="1" opacity="1" d="M 280.5 483 L 281 487.5 L 280 487.5 L 280.5 483 Z " /><path fill="rgb(104,130,152)" stroke="rgb(104,130,152)" stroke-width="1" opacity="1" d="M 297.5 485 L 298 490.5 L 297 490.5 L 297.5 485 Z " /><path fill="rgb(104,130,152)" stroke="rgb(104,130,152)" stroke-width="1" opacity="1" d="M 281.5 498 L 282 501.5 L 281 501.5 L 281.5 498 Z " /><path fill="rgb(104,130,152)" stroke="rgb(104,130,152)" stroke-width="1" opacity="1" d="M 415.5 499 L 416 501.5 L 415 501.5 L 415.5 499 Z " /><path fill="rgb(104,130,152)" stroke="rgb(104,130,152)" stroke-width="1" opacity="1" d="M 298.5 500 L 299 503.5 L 298 503.5 L 298.5 500 Z " /><path fill="rgb(104,130,152)" stroke="rgb(104,130,152)" stroke-width="1" opacity="1" d="M 282.5 509 L 283 511.5 L 282 511.5 L 282.5 509 Z " /><path fill="rgb(104,130,152)" stroke="rgb(104,130,152)" stroke-width="1" opacity="1" d="M 404.5 535 L 403.5 537 L 404.5 535 Z " /><path fill="rgb(104,130,152)" stroke="rgb(104,130,152)" stroke-width="1" opacity="1" d="M 401.5 539 L 395.5 546 L 401.5 539 Z " /><path fill="rgb(104,130,152)" stroke="rgb(104,130,152)" stroke-width="1" opacity="1" d="M 314.5 548 L 318.5 553 L 314.5 548 Z " /><path fill="rgb(104,130,152)" stroke="rgb(104,130,152)" stroke-width="1" opacity="1" d="M 411.5 553 L 409.5 556 L 411.5 553 Z " /><path fill="rgb(104,130,152)" stroke="rgb(104,130,152)" stroke-width="1" opacity="1" d="M 321.5 554 L 322.5 556 L 321.5 554 Z " /><path fill="rgb(104,130,152)" stroke="rgb(104,130,152)" stroke-width="1" opacity="1" d="M 404.5 559 L 403.5 561 L 404.5 559 Z " /><path fill="rgb(104,130,152)" stroke="rgb(104,130,152)" stroke-width="1" opacity="1" d="M 334.5 560 L 337 560.5 L 334.5 561 L 334.5 560 Z " /><path fill="rgb(104,130,152)" stroke="rgb(104,130,152)" stroke-width="1" opacity="1" d="M 343.5 561 L 348 561.5 L 343.5 562 L 343.5 561 Z " /><path fill="rgb(104,130,152)" stroke="rgb(104,130,152)" stroke-width="1" opacity="1" d="M 309.5 566 L 310.5 568 L 309.5 566 Z " /><path fill="rgb(0,0,0)" stroke="rgb(0,0,0)" stroke-width="1" opacity="0.9882352941176471" d="M 402.5 0 L 425.5 0 L 426.5 1 L 447.5 2 L 483.5 11 Q 526 27 553 58.5 Q 564.5 70 570 87.5 L 573 102.5 L 574 125.5 L 573 126.5 L 573 141.5 L 572 142.5 L 571 157.5 L 569 163.5 L 567 178.5 L 559 210.5 L 550 238.5 L 532 283.5 Q 518.6 313.6 502 340.5 L 510.5 341 L 536.5 336 L 550.5 336 L 555.5 337 L 566 342 L 575 355.5 L 576 370.5 Q 571.5 387 559.5 396 Q 543 410.5 520.5 419 L 489.5 426 L 458.5 427 L 457 426.5 L 456 428.5 L 455 459.5 L 454 460.5 L 453 480.5 L 446 516.5 Q 438 545 420.5 564 Q 408.3 576.8 390.5 584 L 362.5 592 L 349.5 593 L 348.5 594 L 336.5 594 L 315.5 589 Q 303.5 583.5 295 574.5 L 282 554.5 L 272 524.5 L 270 507.5 L 269 506.5 L 269 498.5 L 268 497.5 L 268 485.5 L 267 484.5 L 266 443 L 254.5 447 L 240.5 450 L 211.5 450 L 184.5 443 Q 172.8 438.2 165.5 429 Q 156.7 437.2 143.5 441 Q 134.8 443.8 121.5 442 Q 100.4 436.6 88 422.5 Q 67.8 400.2 55 370.5 L 42 338.5 L 25 285.5 L 12 233.5 L 3 186.5 L 2 171.5 L 1 170.5 L 1 131.5 L 2 130.5 L 2 121.5 L 3 120.5 L 4 109.5 L 13 79.5 Q 22.5 57.5 38.5 42 Q 58.7 21.7 90.5 13 L 111.5 9 L 121.5 9 L 122.5 8 L 146.5 8 L 147.5 9 L 158.5 9 L 159.5 10 L 173.5 11 L 194.5 15 L 228.5 25 L 250.5 14 L 274.5 8 Q 280.8 9.8 282.5 7 L 321.5 7 L 322.5 8 L 347.5 10 L 369.5 4 L 390.5 2 L 391.5 1 L 401.5 1 L 402.5 0 Z M 396 16 L 395 17 L 387 17 L 364 21 L 345 27 L 324 23 L 316 23 L 315 22 L 286 22 L 285 23 L 267 25 L 249 31 L 232 41 L 228 41 L 212 35 L 184 28 L 167 26 L 166 25 L 159 25 L 158 24 L 147 24 L 146 23 Q 85 21 55 48 Q 37 63 27 87 L 20 111 L 18 122 L 18 130 L 17 131 L 17 170 L 18 171 L 19 185 L 29 236 L 41 283 L 55 327 L 68 360 Q 79 385 95 406 Q 105 419 124 425 Q 134 426 141 424 L 155 416 L 208 357 L 208 355 L 223 361 L 231 363 L 239 363 L 241 365 L 236 372 Q 231 380 221 384 L 194 390 L 181 396 L 174 405 Q 173 413 176 417 Q 182 425 193 428 L 213 433 L 238 433 L 248 431 Q 266 426 279 414 L 279 472 L 280 473 L 280 491 L 281 492 L 281 504 L 282 505 L 283 520 Q 288 545 302 561 Q 309 569 321 574 L 334 578 L 344 578 L 345 579 L 364 577 L 388 570 L 408 558 L 420 544 L 427 529 L 431 514 L 436 476 L 437 475 L 438 461 L 439 460 L 442 428 L 444 419 L 444 411 L 445 407 L 453 409 L 462 409 L 463 410 L 485 409 L 514 403 Q 532 396 546 385 Q 554 379 559 369 Q 561 360 557 357 L 548 351 L 540 351 L 522 355 L 504 356 L 503 357 L 486 356 L 475 352 Q 510 300 533 236 L 542 209 L 551 174 L 551 169 L 555 151 L 555 144 L 556 143 L 556 133 L 557 132 L 557 109 L 554 92 L 549 80 L 536 64 Q 512 38 477 25 L 455 19 L 436 17 L 435 16 L 396 16 Z " /><path fill="rgb(51,103,145)" stroke="rgb(51,103,145)" stroke-width="1" opacity="1" d="M 312.5 22 L 315 22.5 L 312.5 23 L 312.5 22 Z " /><path fill="rgb(51,103,145)" stroke="rgb(51,103,145)" stroke-width="1" opacity="1" d="M 124.5 23 L 129 23.5 L 124.5 24 L 124.5 23 Z " /><path fill="rgb(51,103,145)" stroke="rgb(51,103,145)" stroke-width="1" opacity="1" d="M 140.5 23 L 146 23.5 L 140.5 24 L 140.5 23 Z " /><path fill="rgb(51,103,145)" stroke="rgb(51,103,145)" stroke-width="1" opacity="1" d="M 399.5 33 L 430.5 33 L 431.5 34 L 439.5 34 L 440.5 35 L 451.5 36 L 472.5 42 Q 506.4 55.1 528 80.5 Q 535.2 87.3 538 98.5 L 539 113.5 L 540 114.5 L 540 125.5 L 539 126.5 L 538 146.5 L 533 174.5 Q 526 204.5 516 231.5 Q 495.5 288.5 464.5 335 Q 460.2 333.3 463 331.5 L 471 314.5 L 474 302.5 Q 472.8 297.8 475 296.5 L 475 268.5 L 474 267.5 L 474 257.5 L 473 256.5 L 472 239.5 L 471 238.5 L 471 214.5 L 475 191.5 L 476 163.5 L 477 162.5 Q 459.8 102.7 418.5 67 Q 399.2 48.8 373 37.5 L 376.5 36 L 398.5 34 L 399.5 33 Z " /><path fill="rgb(51,103,145)" stroke="rgb(51,103,145)" stroke-width="1" opacity="1" d="M 289.5 39 L 308.5 39 L 309.5 40 L 326.5 41 L 344.5 45 L 361.5 51 Q 398.8 67.2 423 96.5 Q 444.7 120.6 456 154 L 429.5 154 L 419.5 156 Q 403.8 160.3 395 171.5 L 389 182.5 L 387 190.5 L 387 212.5 L 391 230.5 L 402 259.5 L 437 327.5 L 453 350 Q 441.3 352.4 435 361.5 Q 430.5 368 429 377.5 L 429 396.5 L 428 397.5 L 426 423.5 L 425 424.5 L 421 463.5 L 420 464.5 L 419 478.5 L 418 479.5 L 414 510.5 Q 411.3 524.3 405 534.5 L 393.5 547 Q 382.8 554.3 368.5 558 L 354.5 561 L 337.5 561 Q 320.4 557.6 312 545.5 L 303 528.5 L 299 509.5 L 298 485.5 L 297 484.5 L 297 462.5 L 296 461.5 L 296 386.5 L 297 382.5 Q 293.9 364.1 281.5 355 Q 273.9 349.1 260 349.5 L 267 328.5 Q 277.1 309.6 284 287.5 L 288 267.5 L 289 237.5 L 288 236.5 L 288 225.5 L 287 224.5 L 286 210.5 L 281 186.5 Q 277 174.5 268.5 167 Q 260.5 159.5 247.5 157 L 226.5 157 L 200.5 164 L 185.5 172 L 185 169.5 L 186 168.5 L 186 160.5 L 190 138.5 L 201 104.5 Q 212.5 77.5 233.5 60 Q 245.1 50.6 260.5 45 L 270.5 42 L 280.5 40 L 288.5 40 L 289.5 39 Z " /><path fill="rgb(51,103,145)" stroke="rgb(51,103,145)" stroke-width="1" opacity="1" d="M 117.5 41 L 153.5 41 L 154.5 42 L 162.5 42 L 189.5 47 L 214 54.5 Q 201.1 67.1 192 83.5 Q 182.1 101.1 176 122.5 L 168 164.5 L 167 197.5 L 168 198.5 L 168 227.5 L 169 228.5 L 168 229.5 L 168 250.5 L 167 251.5 L 167 260.5 L 165 271.5 L 165 288.5 L 168 304.5 L 175 321.5 Q 182.8 335.2 194 345.5 L 141.5 404 Q 137.2 409.2 126.5 408 Q 117.8 404.8 112 398.5 Q 96.9 381.6 87 359.5 L 73 325.5 L 57 275.5 L 47 236.5 L 37 187.5 L 35 166.5 L 34 165.5 L 34 135.5 L 35 134.5 L 35 125.5 L 36 124.5 L 37 113.5 L 43 93.5 Q 51.6 72.1 68.5 59 L 90.5 47 L 117.5 41 Z " /><path fill="rgb(51,103,145)" stroke="rgb(51,103,145)" stroke-width="1" opacity="1" d="M 54.5 48 L 51.5 52 L 54.5 48 Z " /><path fill="rgb(51,103,145)" stroke="rgb(51,103,145)" stroke-width="1" opacity="1" d="M 529.5 57 L 535.5 64 L 529.5 57 Z " /><path fill="rgb(51,103,145)" stroke="rgb(51,103,145)" stroke-width="1" opacity="1" d="M 542.5 71 L 543.5 73 L 542.5 71 Z " /><path fill="rgb(51,103,145)" stroke="rgb(51,103,145)" stroke-width="1" opacity="1" d="M 556.5 108 L 557 110.5 L 556 110.5 L 556.5 108 Z " /><path fill="rgb(51,103,145)" stroke="rgb(51,103,145)" stroke-width="1" opacity="1" d="M 433.5 171 L 451.5 171 L 452.5 172 L 459 172 L 457 194.5 L 454 209.5 L 453 230.5 L 454 231.5 L 454 243.5 L 455 244.5 L 456 261.5 L 457 262.5 L 457 272.5 L 458 273.5 L 458 290.5 L 455 307.5 L 451.5 316 L 427 271.5 L 411 235.5 L 405 214.5 L 404 194.5 Q 406 182.5 414.5 177 L 423.5 173 L 433.5 171 Z M 430 178 L 420 181 Q 415 182 416 190 Q 419 194 426 196 Q 436 197 440 192 L 444 187 L 444 182 Q 440 177 430 178 Z " /><path fill="rgb(51,103,145)" stroke="rgb(51,103,145)" stroke-width="1" opacity="1" d="M 230.5 174 Q 252.1 171.9 260 183.5 L 265 194.5 L 270 221.5 L 270 229.5 L 271 230.5 L 271 263.5 L 270 264.5 L 269 275.5 L 263 295.5 L 256 309.5 L 242.5 346 L 234.5 346 L 223.5 343 Q 207.9 336.6 198 324.5 Q 182.5 308 182 276.5 L 183 275.5 L 183 266.5 L 185 256.5 L 185 243.5 L 186 242.5 L 186 208.5 L 185 207.5 L 185 192.5 Q 194.7 184.7 207.5 180 L 230.5 174 Z M 238 182 L 228 185 L 226 192 L 228 192 L 229 196 L 240 203 Q 249 204 254 200 Q 259 198 258 190 L 251 184 L 238 182 Z " /><path fill="rgb(51,103,145)" stroke="rgb(51,103,145)" stroke-width="1" opacity="1" d="M 207.5 356 L 204.5 360 L 207.5 356 Z " /><path fill="rgb(51,103,145)" stroke="rgb(51,103,145)" stroke-width="1" opacity="1" d="M 491.5 356 L 495 356.5 L 491.5 357 L 491.5 356 Z " /><path fill="rgb(51,103,145)" stroke="rgb(51,103,145)" stroke-width="1" opacity="1" d="M 503.5 356 L 506 356.5 L 503.5 357 L 503.5 356 Z " /><path fill="rgb(51,103,145)" stroke="rgb(51,103,145)" stroke-width="1" opacity="1" d="M 461.5 365 L 471.5 370 L 482.5 373 L 507.5 374 L 508.5 373 L 517.5 373 L 534.5 370 L 531.5 374 L 514.5 384 L 499.5 389 L 482.5 391 L 481.5 392 L 455.5 392 L 446 389 L 447 376.5 L 451.5 369 L 461.5 365 Z " /><path fill="rgb(51,103,145)" stroke="rgb(51,103,145)" stroke-width="1" opacity="1" d="M 263.5 367 Q 271.9 367.1 275 372.5 Q 279.5 377 279 386.5 L 267.5 401 Q 258.3 409.8 244.5 414 L 234.5 416 L 216.5 416 L 201.5 413 L 194 410 Q 192.8 407 196.5 408 L 229.5 399 Q 239.8 394.8 246 386.5 L 261.5 368 L 263.5 367 Z " /><path fill="rgb(51,103,145)" stroke="rgb(51,103,145)" stroke-width="1" opacity="1" d="M 195.5 369 L 194.5 371 L 195.5 369 Z " /><path fill="rgb(51,103,145)" stroke="rgb(51,103,145)" stroke-width="1" opacity="1" d="M 231.5 376 L 228.5 380 L 231.5 376 Z " /><path fill="rgb(51,103,145)" stroke="rgb(51,103,145)" stroke-width="1" opacity="1" d="M 186.5 379 L 185.5 381 L 186.5 379 Z " /><path fill="rgb(51,103,145)" stroke="rgb(51,103,145)" stroke-width="1" opacity="1" d="M 173.5 394 L 172.5 396 L 173.5 394 Z " /><path fill="rgb(51,103,145)" stroke="rgb(51,103,145)" stroke-width="1" opacity="1" d="M 95.5 405 L 97.5 408 L 95.5 405 Z " /><path fill="rgb(51,103,145)" stroke="rgb(51,103,145)" stroke-width="1" opacity="1" d="M 162.5 407 L 161.5 409 L 162.5 407 Z " /><path fill="rgb(51,103,145)" stroke="rgb(51,103,145)" stroke-width="1" opacity="1" d="M 462.5 409 L 472 409.5 L 462.5 410 L 462.5 409 Z " /><path fill="rgb(51,103,145)" stroke="rgb(51,103,145)" stroke-width="1" opacity="1" d="M 103.5 413 L 104.5 415 L 103.5 413 Z " /><path fill="rgb(51,103,145)" stroke="rgb(51,103,145)" stroke-width="1" opacity="1" d="M 155.5 414 L 154.5 416 L 155.5 414 Z " /><path fill="rgb(51,103,145)" stroke="rgb(51,103,145)" stroke-width="1" opacity="1" d="M 279.5 467 L 280 471.5 L 279 471.5 L 279.5 467 Z " /><path fill="rgb(51,103,145)" stroke="rgb(51,103,145)" stroke-width="1" opacity="1" d="M 280.5 488 L 281 490.5 L 280 490.5 L 280.5 488 Z " /><path fill="rgb(51,103,145)" stroke="rgb(51,103,145)" stroke-width="1" opacity="1" d="M 413.5 551 L 412.5 553 L 413.5 551 Z " /><path fill="rgb(51,103,145)" stroke="rgb(51,103,145)" stroke-width="1" opacity="1" d="M 408.5 556 L 407.5 558 L 408.5 556 Z " /><path fill="rgb(51,103,145)" stroke="rgb(51,103,145)" stroke-width="1" opacity="1" d="M 302.5 560 L 306.5 565 L 302.5 560 Z " /><path fill="rgb(51,103,145)" stroke="rgb(51,103,145)" stroke-width="1" opacity="1" d="M 344.5 578 L 348 578.5 L 344.5 579 L 344.5 578 Z " /><path fill="rgb(205,216,224)" stroke="rgb(205,216,224)" stroke-width="1" opacity="1" d="M 402.5 16 L 408 16.5 L 402.5 17 L 402.5 16 Z " /><path fill="rgb(205,216,224)" stroke="rgb(205,216,224)" stroke-width="1" opacity="1" d="M 421.5 16 L 429 16.5 L 421.5 17 L 421.5 16 Z " /><path fill="rgb(205,216,224)" stroke="rgb(205,216,224)" stroke-width="1" opacity="1" d="M 390.5 17 L 393 17.5 L 390.5 18 L 390.5 17 Z " /><path fill="rgb(205,216,224)" stroke="rgb(205,216,224)" stroke-width="1" opacity="1" d="M 293.5 22 L 306 22.5 L 293.5 23 L 293.5 22 Z " /><path fill="rgb(205,216,224)" stroke="rgb(205,216,224)" stroke-width="1" opacity="1" d="M 118.5 24 L 121 24.5 L 118.5 25 L 118.5 24 Z " /><path fill="rgb(205,216,224)" stroke="rgb(205,216,224)" stroke-width="1" opacity="1" d="M 150.5 24 L 153 24.5 L 150.5 25 L 150.5 24 Z " /><path fill="rgb(205,216,224)" stroke="rgb(205,216,224)" stroke-width="1" opacity="1" d="M 160.5 25 L 163 25.5 L 160.5 26 L 160.5 25 Z " /><path fill="rgb(205,216,224)" stroke="rgb(205,216,224)" stroke-width="1" opacity="1" d="M 404.5 32 L 427 32.5 L 404.5 33 L 404.5 32 Z " /><path fill="rgb(205,216,224)" stroke="rgb(205,216,224)" stroke-width="1" opacity="1" d="M 392.5 33 L 396 33.5 L 392.5 34 L 392.5 33 Z " /><path fill="rgb(205,216,224)" stroke="rgb(205,216,224)" stroke-width="1" opacity="1" d="M 435.5 33 L 438 33.5 L 435.5 34 L 435.5 33 Z " /><path fill="rgb(205,216,224)" stroke="rgb(205,216,224)" stroke-width="1" opacity="1" d="M 377.5 35 L 380 35.5 L 377.5 36 L 377.5 35 Z " /><path fill="rgb(205,216,224)" stroke="rgb(205,216,224)" stroke-width="1" opacity="1" d="M 448.5 35 L 451 35.5 L 448.5 36 L 448.5 35 Z " /><path fill="rgb(205,216,224)" stroke="rgb(205,216,224)" stroke-width="1" opacity="1" d="M 372.5 36 L 374 36.5 L 371.5 38 L 372.5 36 Z " /><path fill="rgb(205,216,224)" stroke="rgb(205,216,224)" stroke-width="1" opacity="1" d="M 296.5 38 L 304 38.5 L 296.5 39 L 296.5 38 Z " /><path fill="rgb(205,216,224)" stroke="rgb(205,216,224)" stroke-width="1" opacity="1" d="M 282.5 39 L 286 39.5 L 282.5 40 L 282.5 39 Z " /><path fill="rgb(205,216,224)" stroke="rgb(205,216,224)" stroke-width="1" opacity="1" d="M 314.5 39 L 318 39.5 L 314.5 40 L 314.5 39 Z " /><path fill="rgb(205,216,224)" stroke="rgb(205,216,224)" stroke-width="1" opacity="1" d="M 119.5 40 L 124 40.5 L 119.5 41 L 119.5 40 Z " /><path fill="rgb(205,216,224)" stroke="rgb(205,216,224)" stroke-width="1" opacity="1" d="M 146.5 40 L 151 40.5 L 146.5 41 L 146.5 40 Z " /><path fill="rgb(205,216,224)" stroke="rgb(205,216,224)" stroke-width="1" opacity="1" d="M 323.5 40 L 326 40.5 L 323.5 41 L 323.5 40 Z " /><path fill="rgb(205,216,224)" stroke="rgb(205,216,224)" stroke-width="1" opacity="1" d="M 111.5 41 L 114 41.5 L 111.5 42 L 111.5 41 Z " /><path fill="rgb(205,216,224)" stroke="rgb(205,216,224)" stroke-width="1" opacity="1" d="M 157.5 41 L 161 41.5 L 157.5 42 L 157.5 41 Z " /><path fill="rgb(205,216,224)" stroke="rgb(205,216,224)" stroke-width="1" opacity="1" d="M 105.5 42 L 108 42.5 L 105.5 43 L 105.5 42 Z " /><path fill="rgb(205,216,224)" stroke="rgb(205,216,224)" stroke-width="1" opacity="1" d="M 165.5 42 L 168 42.5 L 165.5 43 L 165.5 42 Z " /><path fill="rgb(205,216,224)" stroke="rgb(205,216,224)" stroke-width="1" opacity="1" d="M 60.5 44 L 59.5 46 L 60.5 44 Z " /><path fill="rgb(205,216,224)" stroke="rgb(205,216,224)" stroke-width="1" opacity="1" d="M 389.5 46 L 390.5 48 L 389.5 46 Z " /><path fill="rgb(205,216,224)" stroke="rgb(205,216,224)" stroke-width="1" opacity="1" d="M 515.5 46 L 516.5 48 L 515.5 46 Z " /><path fill="rgb(205,216,224)" stroke="rgb(205,216,224)" stroke-width="1" opacity="1" d="M 56.5 47 L 55.5 49 L 56.5 47 Z " /><path fill="rgb(205,216,224)" stroke="rgb(205,216,224)" stroke-width="1" opacity="1" d="M 394.5 49 L 395.5 51 L 394.5 49 Z " /><path fill="rgb(205,216,224)" stroke="rgb(205,216,224)" stroke-width="1" opacity="1" d="M 79.5 51 L 78.5 53 L 79.5 51 Z " /><path fill="rgb(205,216,224)" stroke="rgb(205,216,224)" stroke-width="1" opacity="1" d="M 397.5 51 L 398.5 53 L 397.5 51 Z " /><path fill="rgb(205,216,224)" stroke="rgb(205,216,224)" stroke-width="1" opacity="1" d="M 240.5 54 L 239.5 56 L 240.5 54 Z " /><path fill="rgb(205,216,224)" stroke="rgb(205,216,224)" stroke-width="1" opacity="1" d="M 526.5 55 L 528.5 58 L 526.5 55 Z " /><path fill="rgb(205,216,224)" stroke="rgb(205,216,224)" stroke-width="1" opacity="1" d="M 71.5 56 L 70.5 58 L 71.5 56 Z " /><path fill="rgb(205,216,224)" stroke="rgb(205,216,224)" stroke-width="1" opacity="1" d="M 237.5 56 L 236.5 58 L 237.5 56 Z " /><path fill="rgb(205,216,224)" stroke="rgb(205,216,224)" stroke-width="1" opacity="1" d="M 404.5 56 L 405.5 58 L 404.5 56 Z " /><path fill="rgb(205,216,224)" stroke="rgb(205,216,224)" stroke-width="1" opacity="1" d="M 504.5 58 L 505.5 60 L 504.5 58 Z " /><path fill="rgb(205,216,224)" stroke="rgb(205,216,224)" stroke-width="1" opacity="1" d="M 44.5 59 L 43.5 61 L 44.5 59 Z " /><path fill="rgb(205,216,224)" stroke="rgb(205,216,224)" stroke-width="1" opacity="1" d="M 408.5 59 L 410.5 62 L 408.5 59 Z " /><path fill="rgb(205,216,224)" stroke="rgb(205,216,224)" stroke-width="1" opacity="1" d="M 209.5 60 L 206.5 64 L 209.5 60 Z " /><path fill="rgb(205,216,224)" stroke="rgb(205,216,224)" stroke-width="1" opacity="1" d="M 232.5 60 L 230.5 63 L 232.5 60 Z " /><path fill="rgb(205,216,224)" stroke="rgb(205,216,224)" stroke-width="1" opacity="1" d="M 508.5 61 L 509.5 63 L 508.5 61 Z " /><path fill="rgb(205,216,224)" stroke="rgb(205,216,224)" stroke-width="1" opacity="1" d="M 384.5 62 L 385.5 64 L 384.5 62 Z " /><path fill="rgb(205,216,224)" stroke="rgb(205,216,224)" stroke-width="1" opacity="1" d="M 387.5 64 L 388.5 66 L 387.5 64 Z " /><path fill="rgb(205,216,224)" stroke="rgb(205,216,224)" stroke-width="1" opacity="1" d="M 414.5 64 L 417.5 68 L 414.5 64 Z " /><path fill="rgb(205,216,224)" stroke="rgb(205,216,224)" stroke-width="1" opacity="1" d="M 512.5 64 L 516.5 69 L 512.5 64 Z " /><path fill="rgb(205,216,224)" stroke="rgb(205,216,224)" stroke-width="1" opacity="1" d="M 535.5 64 L 539.5 69 L 535.5 64 Z " /><path fill="rgb(205,216,224)" stroke="rgb(205,216,224)" stroke-width="1" opacity="1" d="M 60.5 65 L 59.5 67 L 60.5 65 Z " /><path fill="rgb(205,216,224)" stroke="rgb(205,216,224)" stroke-width="1" opacity="1" d="M 204.5 66 L 202.5 69 L 204.5 66 Z " /><path fill="rgb(205,216,224)" stroke="rgb(205,216,224)" stroke-width="1" opacity="1" d="M 390.5 66 L 391.5 68 L 390.5 66 Z " /><path fill="rgb(205,216,224)" stroke="rgb(205,216,224)" stroke-width="1" opacity="1" d="M 393.5 68 L 395.5 71 L 393.5 68 Z " /><path fill="rgb(205,216,224)" stroke="rgb(205,216,224)" stroke-width="1" opacity="1" d="M 56.5 70 L 54.5 73 L 56.5 70 Z " /><path fill="rgb(205,216,224)" stroke="rgb(205,216,224)" stroke-width="1" opacity="1" d="M 201.5 70 L 200.5 72 L 201.5 70 Z " /><path fill="rgb(205,216,224)" stroke="rgb(205,216,224)" stroke-width="1" opacity="1" d="M 221.5 71 L 218.5 75 L 221.5 71 Z " /><path fill="rgb(205,216,224)" stroke="rgb(205,216,224)" stroke-width="1" opacity="1" d="M 398.5 72 L 399.5 74 L 398.5 72 Z " /><path fill="rgb(205,216,224)" stroke="rgb(205,216,224)" stroke-width="1" opacity="1" d="M 543.5 73 L 544.5 75 L 543.5 73 Z " /><path fill="rgb(205,216,224)" stroke="rgb(205,216,224)" stroke-width="1" opacity="1" d="M 403.5 76 L 406.5 80 L 403.5 76 Z " /><path fill="rgb(205,216,224)" stroke="rgb(205,216,224)" stroke-width="1" opacity="1" d="M 216.5 77 L 215.5 79 L 216.5 77 Z " /><path fill="rgb(205,216,224)" stroke="rgb(205,216,224)" stroke-width="1" opacity="1" d="M 525.5 77 L 528.5 81 L 525.5 77 Z " /><path fill="rgb(205,216,224)" stroke="rgb(205,216,224)" stroke-width="1" opacity="1" d="M 432.5 82 L 435.5 86 L 432.5 82 Z " /><path fill="rgb(205,216,224)" stroke="rgb(205,216,224)" stroke-width="1" opacity="1" d="M 531.5 84 L 533.5 87 L 531.5 84 Z " /><path fill="rgb(205,216,224)" stroke="rgb(205,216,224)" stroke-width="1" opacity="1" d="M 438.5 89 L 440.5 92 L 438.5 89 Z " /><path fill="rgb(205,216,224)" stroke="rgb(205,216,224)" stroke-width="1" opacity="1" d="M 420.5 93 L 423.5 97 L 420.5 93 Z " /><path fill="rgb(205,216,224)" stroke="rgb(205,216,224)" stroke-width="1" opacity="1" d="M 442.5 94 L 443.5 96 L 442.5 94 Z " /><path fill="rgb(205,216,224)" stroke="rgb(205,216,224)" stroke-width="1" opacity="1" d="M 445.5 98 L 446.5 100 L 445.5 98 Z " /><path fill="rgb(205,216,224)" stroke="rgb(205,216,224)" stroke-width="1" opacity="1" d="M 426.5 100 L 428.5 103 L 426.5 100 Z " /><path fill="rgb(205,216,224)" stroke="rgb(205,216,224)" stroke-width="1" opacity="1" d="M 555.5 103 L 556 105.5 L 555 105.5 L 555.5 103 Z " /><path fill="rgb(205,216,224)" stroke="rgb(205,216,224)" stroke-width="1" opacity="1" d="M 430.5 105 L 431.5 107 L 430.5 105 Z " /><path fill="rgb(205,216,224)" stroke="rgb(205,216,224)" stroke-width="1" opacity="1" d="M 539.5 105 L 540 108.5 L 539 108.5 L 539.5 105 Z " /><path fill="rgb(205,216,224)" stroke="rgb(205,216,224)" stroke-width="1" opacity="1" d="M 435.5 112 L 436.5 114 L 435.5 112 Z " /><path fill="rgb(205,216,224)" stroke="rgb(205,216,224)" stroke-width="1" opacity="1" d="M 437.5 115 L 438.5 117 L 437.5 115 Z " /><path fill="rgb(205,216,224)" stroke="rgb(205,216,224)" stroke-width="1" opacity="1" d="M 35.5 119 L 36 121.5 L 35 121.5 L 35.5 119 Z " /><path fill="rgb(205,216,224)" stroke="rgb(205,216,224)" stroke-width="1" opacity="1" d="M 34.5 127 L 35 129.5 L 34 129.5 L 34.5 127 Z " /><path fill="rgb(205,216,224)" stroke="rgb(205,216,224)" stroke-width="1" opacity="1" d="M 539.5 132 L 540 136.5 L 539 136.5 L 539.5 132 Z " /><path fill="rgb(205,216,224)" stroke="rgb(205,216,224)" stroke-width="1" opacity="1" d="M 17.5 136 L 18 141.5 L 17 141.5 L 17.5 136 Z " /><path fill="rgb(205,216,224)" stroke="rgb(205,216,224)" stroke-width="1" opacity="1" d="M 555.5 136 L 556 138.5 L 555 138.5 L 555.5 136 Z " /><path fill="rgb(205,216,224)" stroke="rgb(205,216,224)" stroke-width="1" opacity="1" d="M 33.5 138 L 34 162.5 L 33 162.5 L 33.5 138 Z " /><path fill="rgb(205,216,224)" stroke="rgb(205,216,224)" stroke-width="1" opacity="1" d="M 538.5 142 L 539 144.5 L 538 144.5 L 538.5 142 Z " /><path fill="rgb(205,216,224)" stroke="rgb(205,216,224)" stroke-width="1" opacity="1" d="M 537.5 150 L 538 152.5 L 537 152.5 L 537.5 150 Z " /><path fill="rgb(205,216,224)" stroke="rgb(205,216,224)" stroke-width="1" opacity="1" d="M 170.5 152 L 171 154.5 L 170 154.5 L 170.5 152 Z " /><path fill="rgb(205,216,224)" stroke="rgb(205,216,224)" stroke-width="1" opacity="1" d="M 432.5 154 L 440 154.5 L 432.5 155 L 432.5 154 Z " /><path fill="rgb(205,216,224)" stroke="rgb(205,216,224)" stroke-width="1" opacity="1" d="M 446.5 154 L 453 154.5 L 446.5 155 L 446.5 154 Z " /><path fill="rgb(205,216,224)" stroke="rgb(205,216,224)" stroke-width="1" opacity="1" d="M 186.5 155 L 187 157.5 L 186 157.5 L 186.5 155 Z " /><path fill="rgb(205,216,224)" stroke="rgb(205,216,224)" stroke-width="1" opacity="1" d="M 424.5 155 L 428 155.5 L 424.5 156 L 424.5 155 Z " /><path fill="rgb(205,216,224)" stroke="rgb(205,216,224)" stroke-width="1" opacity="1" d="M 229.5 157 L 235 157.5 L 229.5 158 L 229.5 157 Z " /><path fill="rgb(205,216,224)" stroke="rgb(205,216,224)" stroke-width="1" opacity="1" d="M 239.5 157 L 245 157.5 L 239.5 158 L 239.5 157 Z " /><path fill="rgb(205,216,224)" stroke="rgb(205,216,224)" stroke-width="1" opacity="1" d="M 17.5 158 L 18 163.5 L 17 163.5 L 17.5 158 Z " /><path fill="rgb(205,216,224)" stroke="rgb(205,216,224)" stroke-width="1" opacity="1" d="M 222.5 158 L 225 158.5 L 222.5 159 L 222.5 158 Z " /><path fill="rgb(205,216,224)" stroke="rgb(205,216,224)" stroke-width="1" opacity="1" d="M 169.5 159 L 170 161.5 L 169 161.5 L 169.5 159 Z " /><path fill="rgb(205,216,224)" stroke="rgb(205,216,224)" stroke-width="1" opacity="1" d="M 185.5 162 L 186 165.5 L 185 165.5 L 185.5 162 Z " /><path fill="rgb(205,216,224)" stroke="rgb(205,216,224)" stroke-width="1" opacity="1" d="M 265.5 165 L 267.5 168 L 265.5 165 Z " /><path fill="rgb(205,216,224)" stroke="rgb(205,216,224)" stroke-width="1" opacity="1" d="M 475.5 166 L 476 170.5 L 475 170.5 L 475.5 166 Z " /><path fill="rgb(205,216,224)" stroke="rgb(205,216,224)" stroke-width="1" opacity="1" d="M 168.5 168 L 169 172.5 L 168 172.5 L 168.5 168 Z " /><path fill="rgb(205,216,224)" stroke="rgb(205,216,224)" stroke-width="1" opacity="1" d="M 34.5 169 L 35 172.5 L 34 172.5 L 34.5 169 Z " /><path fill="rgb(205,216,224)" stroke="rgb(205,216,224)" stroke-width="1" opacity="1" d="M 435.5 170 L 448 170.5 L 435.5 171 L 435.5 170 Z " /><path fill="rgb(205,216,224)" stroke="rgb(205,216,224)" stroke-width="1" opacity="1" d="M 271.5 171 L 273.5 174 L 271.5 171 Z " /><path fill="rgb(205,216,224)" stroke="rgb(205,216,224)" stroke-width="1" opacity="1" d="M 427.5 171 L 431 171.5 L 427.5 172 L 427.5 171 Z " /><path fill="rgb(205,216,224)" stroke="rgb(205,216,224)" stroke-width="1" opacity="1" d="M 456.5 171 L 460 172.5 L 459.5 175 L 459 172 Q 455.7 172.8 456.5 171 Z " /><path fill="rgb(205,216,224)" stroke="rgb(205,216,224)" stroke-width="1" opacity="1" d="M 395.5 172 L 394.5 174 L 395.5 172 Z " /><path fill="rgb(205,216,224)" stroke="rgb(205,216,224)" stroke-width="1" opacity="1" d="M 233.5 173 L 241 173.5 L 233.5 174 L 233.5 173 Z " /><path fill="rgb(205,216,224)" stroke="rgb(205,216,224)" stroke-width="1" opacity="1" d="M 475.5 173 L 476 179.5 L 475 179.5 L 475.5 173 Z " /><path fill="rgb(205,216,224)" stroke="rgb(205,216,224)" stroke-width="1" opacity="1" d="M 225.5 174 L 228 174.5 L 225.5 175 L 225.5 174 Z " /><path fill="rgb(205,216,224)" stroke="rgb(205,216,224)" stroke-width="1" opacity="1" d="M 274.5 175 L 275.5 177 L 274.5 175 Z " /><path fill="rgb(205,216,224)" stroke="rgb(205,216,224)" stroke-width="1" opacity="1" d="M 35.5 177 L 36 179.5 L 35 179.5 L 35.5 177 Z " /><path fill="rgb(205,216,224)" stroke="rgb(205,216,224)" stroke-width="1" opacity="1" d="M 255.5 178 L 256.5 180 L 255.5 178 Z " /><path fill="rgb(205,216,224)" stroke="rgb(205,216,224)" stroke-width="1" opacity="1" d="M 410.5 179 L 409.5 181 L 410.5 179 Z " /><path fill="rgb(205,216,224)" stroke="rgb(205,216,224)" stroke-width="1" opacity="1" d="M 259.5 182 L 260.5 184 L 259.5 182 Z " /><path fill="rgb(205,216,224)" stroke="rgb(205,216,224)" stroke-width="1" opacity="1" d="M 443.5 182 L 444 185.5 L 443 185.5 L 443.5 182 Z " /><path fill="rgb(205,216,224)" stroke="rgb(205,216,224)" stroke-width="1" opacity="1" d="M 458.5 182 L 459 184.5 L 458 184.5 L 458.5 182 Z " /><path fill="rgb(205,216,224)" stroke="rgb(205,216,224)" stroke-width="1" opacity="1" d="M 230.5 184 L 229.5 186 L 230.5 184 Z " /><path fill="rgb(205,216,224)" stroke="rgb(205,216,224)" stroke-width="1" opacity="1" d="M 167.5 185 L 168 191.5 L 167 191.5 L 167.5 185 Z " /><path fill="rgb(205,216,224)" stroke="rgb(205,216,224)" stroke-width="1" opacity="1" d="M 474.5 185 L 475 188.5 L 474 188.5 L 474.5 185 Z " /><path fill="rgb(205,216,224)" stroke="rgb(205,216,224)" stroke-width="1" opacity="1" d="M 255.5 187 L 256.5 189 L 255.5 187 Z " /><path fill="rgb(205,216,224)" stroke="rgb(205,216,224)" stroke-width="1" opacity="1" d="M 442.5 187 L 441.5 189 L 442.5 187 Z " /><path fill="rgb(205,216,224)" stroke="rgb(205,216,224)" stroke-width="1" opacity="1" d="M 186.5 190 L 184.5 193 L 186.5 190 Z " /><path fill="rgb(205,216,224)" stroke="rgb(205,216,224)" stroke-width="1" opacity="1" d="M 457.5 190 L 458 192.5 L 457 192.5 L 457.5 190 Z " /><path fill="rgb(205,216,224)" stroke="rgb(205,216,224)" stroke-width="1" opacity="1" d="M 438.5 191 L 436.5 194 L 438.5 191 Z " /><path fill="rgb(205,216,224)" stroke="rgb(205,216,224)" stroke-width="1" opacity="1" d="M 387.5 192 L 388 194.5 L 387 194.5 L 387.5 192 Z " /><path fill="rgb(205,216,224)" stroke="rgb(205,216,224)" stroke-width="1" opacity="1" d="M 473.5 193 L 474 195.5 L 473 195.5 L 473.5 193 Z " /><path fill="rgb(205,216,224)" stroke="rgb(205,216,224)" stroke-width="1" opacity="1" d="M 38.5 195 L 39 197.5 L 38 197.5 L 38.5 195 Z " /><path fill="rgb(205,216,224)" stroke="rgb(205,216,224)" stroke-width="1" opacity="1" d="M 403.5 195 L 404 206.5 L 403 206.5 L 403.5 195 Z " /><path fill="rgb(205,216,224)" stroke="rgb(205,216,224)" stroke-width="1" opacity="1" d="M 426.5 195 L 432 195.5 L 426.5 196 L 426.5 195 Z " /><path fill="rgb(205,216,224)" stroke="rgb(205,216,224)" stroke-width="1" opacity="1" d="M 184.5 197 L 185 203.5 L 184 203.5 L 184.5 197 Z " /><path fill="rgb(205,216,224)" stroke="rgb(205,216,224)" stroke-width="1" opacity="1" d="M 456.5 197 L 457 199.5 L 456 199.5 L 456.5 197 Z " /><path fill="rgb(205,216,224)" stroke="rgb(205,216,224)" stroke-width="1" opacity="1" d="M 233.5 198 L 234.5 200 L 233.5 198 Z " /><path fill="rgb(205,216,224)" stroke="rgb(205,216,224)" stroke-width="1" opacity="1" d="M 252.5 199 L 251.5 201 L 252.5 199 Z " /><path fill="rgb(205,216,224)" stroke="rgb(205,216,224)" stroke-width="1" opacity="1" d="M 472.5 200 L 473 202.5 L 472 202.5 L 472.5 200 Z " /><path fill="rgb(205,216,224)" stroke="rgb(205,216,224)" stroke-width="1" opacity="1" d="M 168.5 202 L 169 209.5 L 168 209.5 L 168.5 202 Z " /><path fill="rgb(205,216,224)" stroke="rgb(205,216,224)" stroke-width="1" opacity="1" d="M 241.5 202 L 246 202.5 L 241.5 203 L 241.5 202 Z " /><path fill="rgb(205,216,224)" stroke="rgb(205,216,224)" stroke-width="1" opacity="1" d="M 455.5 204 L 456 206.5 L 455 206.5 L 455.5 204 Z " /><path fill="rgb(205,216,224)" stroke="rgb(205,216,224)" stroke-width="1" opacity="1" d="M 387.5 206 L 388 209.5 L 387 209.5 L 387.5 206 Z " /><path fill="rgb(205,216,224)" stroke="rgb(205,216,224)" stroke-width="1" opacity="1" d="M 471.5 207 L 472 209.5 L 471 209.5 L 471.5 207 Z " /><path fill="rgb(205,216,224)" stroke="rgb(205,216,224)" stroke-width="1" opacity="1" d="M 404.5 211 L 405 213.5 L 404 213.5 L 404.5 211 Z " /><path fill="rgb(205,216,224)" stroke="rgb(205,216,224)" stroke-width="1" opacity="1" d="M 285.5 212 L 286 214.5 L 285 214.5 L 285.5 212 Z " /><path fill="rgb(205,216,224)" stroke="rgb(205,216,224)" stroke-width="1" opacity="1" d="M 454.5 212 L 455 217.5 L 454 217.5 L 454.5 212 Z " /><path fill="rgb(205,216,224)" stroke="rgb(205,216,224)" stroke-width="1" opacity="1" d="M 388.5 214 L 389 216.5 L 388 216.5 L 388.5 214 Z " /><path fill="rgb(205,216,224)" stroke="rgb(205,216,224)" stroke-width="1" opacity="1" d="M 269.5 215 L 270 217.5 L 269 217.5 L 269.5 215 Z " /><path fill="rgb(205,216,224)" stroke="rgb(205,216,224)" stroke-width="1" opacity="1" d="M 470.5 216 L 471 222.5 L 470 222.5 L 470.5 216 Z " /><path fill="rgb(205,216,224)" stroke="rgb(205,216,224)" stroke-width="1" opacity="1" d="M 286.5 219 L 287 221.5 L 286 221.5 L 286.5 219 Z " /><path fill="rgb(205,216,224)" stroke="rgb(205,216,224)" stroke-width="1" opacity="1" d="M 185.5 222 L 186 230.5 L 185 230.5 L 185.5 222 Z " /><path fill="rgb(205,216,224)" stroke="rgb(205,216,224)" stroke-width="1" opacity="1" d="M 270.5 222 L 271 225.5 L 270 225.5 L 270.5 222 Z " /><path fill="rgb(205,216,224)" stroke="rgb(205,216,224)" stroke-width="1" opacity="1" d="M 287.5 228 L 288 231.5 L 287 231.5 L 287.5 228 Z " /><path fill="rgb(205,216,224)" stroke="rgb(205,216,224)" stroke-width="1" opacity="1" d="M 470.5 230 L 471 235.5 L 470 235.5 L 470.5 230 Z " /><path fill="rgb(205,216,224)" stroke="rgb(205,216,224)" stroke-width="1" opacity="1" d="M 271.5 232 L 272 237.5 L 271 237.5 L 271.5 232 Z " /><path fill="rgb(205,216,224)" stroke="rgb(205,216,224)" stroke-width="1" opacity="1" d="M 454.5 236 L 455 239.5 L 454 239.5 L 454.5 236 Z " /><path fill="rgb(205,216,224)" stroke="rgb(205,216,224)" stroke-width="1" opacity="1" d="M 168.5 242 L 169 247.5 L 168 247.5 L 168.5 242 Z " /><path fill="rgb(205,216,224)" stroke="rgb(205,216,224)" stroke-width="1" opacity="1" d="M 471.5 242 L 472 245.5 L 471 245.5 L 471.5 242 Z " /><path fill="rgb(205,216,224)" stroke="rgb(205,216,224)" stroke-width="1" opacity="1" d="M 455.5 246 L 456 249.5 L 455 249.5 L 455.5 246 Z " /><path fill="rgb(205,216,224)" stroke="rgb(205,216,224)" stroke-width="1" opacity="1" d="M 184.5 247 L 185 252.5 L 184 252.5 L 184.5 247 Z " /><path fill="rgb(205,216,224)" stroke="rgb(205,216,224)" stroke-width="1" opacity="1" d="M 472.5 252 L 473 254.5 L 472 254.5 L 472.5 252 Z " /><path fill="rgb(205,216,224)" stroke="rgb(205,216,224)" stroke-width="1" opacity="1" d="M 456.5 255 L 457 258.5 L 456 258.5 L 456.5 255 Z " /><path fill="rgb(205,216,224)" stroke="rgb(205,216,224)" stroke-width="1" opacity="1" d="M 167.5 256 L 168 258.5 L 167 258.5 L 167.5 256 Z " /><path fill="rgb(205,216,224)" stroke="rgb(205,216,224)" stroke-width="1" opacity="1" d="M 271.5 257 L 272 262.5 L 271 262.5 L 271.5 257 Z " /><path fill="rgb(205,216,224)" stroke="rgb(205,216,224)" stroke-width="1" opacity="1" d="M 183.5 259 L 184 261.5 L 183 261.5 L 183.5 259 Z " /><path fill="rgb(205,216,224)" stroke="rgb(205,216,224)" stroke-width="1" opacity="1" d="M 473.5 260 L 474 264.5 L 473 264.5 L 473.5 260 Z " /><path fill="rgb(205,216,224)" stroke="rgb(205,216,224)" stroke-width="1" opacity="1" d="M 287.5 261 L 288 265.5 L 287 265.5 L 287.5 261 Z " /><path fill="rgb(205,216,224)" stroke="rgb(205,216,224)" stroke-width="1" opacity="1" d="M 166.5 264 L 167 267.5 L 166 267.5 L 166.5 264 Z " /><path fill="rgb(205,216,224)" stroke="rgb(205,216,224)" stroke-width="1" opacity="1" d="M 457.5 264 L 458 268.5 L 457 268.5 L 457.5 264 Z " /><path fill="rgb(205,216,224)" stroke="rgb(205,216,224)" stroke-width="1" opacity="1" d="M 270.5 267 L 271 269.5 L 270 269.5 L 270.5 267 Z " /><path fill="rgb(205,216,224)" stroke="rgb(205,216,224)" stroke-width="1" opacity="1" d="M 182.5 268 L 183 271.5 L 182 271.5 L 182.5 268 Z " /><path fill="rgb(205,216,224)" stroke="rgb(205,216,224)" stroke-width="1" opacity="1" d="M 286.5 270 L 287 272.5 L 286 272.5 L 286.5 270 Z " /><path fill="rgb(205,216,224)" stroke="rgb(205,216,224)" stroke-width="1" opacity="1" d="M 474.5 272 L 475 279.5 L 474 279.5 L 474.5 272 Z " /><path fill="rgb(205,216,224)" stroke="rgb(205,216,224)" stroke-width="1" opacity="1" d="M 165.5 275 L 166 283.5 L 165 283.5 L 165.5 275 Z " /><path fill="rgb(205,216,224)" stroke="rgb(205,216,224)" stroke-width="1" opacity="1" d="M 458.5 276 L 459 288.5 L 458 288.5 L 458.5 276 Z " /><path fill="rgb(205,216,224)" stroke="rgb(205,216,224)" stroke-width="1" opacity="1" d="M 474.5 285 L 475 292.5 L 474 292.5 L 474.5 285 Z " /><path fill="rgb(205,216,224)" stroke="rgb(205,216,224)" stroke-width="1" opacity="1" d="M 182.5 288 L 183 290.5 L 182 290.5 L 182.5 288 Z " /><path fill="rgb(205,216,224)" stroke="rgb(205,216,224)" stroke-width="1" opacity="1" d="M 166.5 291 L 167 293.5 L 166 293.5 L 166.5 291 Z " /><path fill="rgb(205,216,224)" stroke="rgb(205,216,224)" stroke-width="1" opacity="1" d="M 457.5 295 L 458 297.5 L 457 297.5 L 457.5 295 Z " /><path fill="rgb(205,216,224)" stroke="rgb(205,216,224)" stroke-width="1" opacity="1" d="M 473.5 298 L 474 300.5 L 473 300.5 L 473.5 298 Z " /><path fill="rgb(205,216,224)" stroke="rgb(205,216,224)" stroke-width="1" opacity="1" d="M 477.5 315 L 476.5 317 L 477.5 315 Z " /><path fill="rgb(205,216,224)" stroke="rgb(205,216,224)" stroke-width="1" opacity="1" d="M 192.5 317 L 193.5 319 L 192.5 317 Z " /><path fill="rgb(205,216,224)" stroke="rgb(205,216,224)" stroke-width="1" opacity="1" d="M 194.5 320 L 195.5 322 L 194.5 320 Z " /><path fill="rgb(205,216,224)" stroke="rgb(205,216,224)" stroke-width="1" opacity="1" d="M 473.5 322 L 472.5 324 L 473.5 322 Z " /><path fill="rgb(205,216,224)" stroke="rgb(205,216,224)" stroke-width="1" opacity="1" d="M 197.5 324 L 206.5 334 L 197.5 324 Z " /><path fill="rgb(205,216,224)" stroke="rgb(205,216,224)" stroke-width="1" opacity="1" d="M 181.5 330 L 183.5 333 L 181.5 330 Z " /><path fill="rgb(205,216,224)" stroke="rgb(205,216,224)" stroke-width="1" opacity="1" d="M 442.5 334 L 443.5 336 L 442.5 334 Z " /><path fill="rgb(205,216,224)" stroke="rgb(205,216,224)" stroke-width="1" opacity="1" d="M 185.5 335 L 194.5 345 L 185.5 335 Z " /><path fill="rgb(205,216,224)" stroke="rgb(205,216,224)" stroke-width="1" opacity="1" d="M 209.5 335 L 210.5 337 L 209.5 335 Z " /><path fill="rgb(205,216,224)" stroke="rgb(205,216,224)" stroke-width="1" opacity="1" d="M 212.5 337 L 213.5 339 L 212.5 337 Z " /><path fill="rgb(205,216,224)" stroke="rgb(205,216,224)" stroke-width="1" opacity="1" d="M 444.5 337 L 446.5 340 L 444.5 337 Z " /><path fill="rgb(205,216,224)" stroke="rgb(205,216,224)" stroke-width="1" opacity="1" d="M 448.5 342 L 449.5 344 L 448.5 342 Z " /><path fill="rgb(205,216,224)" stroke="rgb(205,216,224)" stroke-width="1" opacity="1" d="M 235.5 346 L 239 346.5 L 235.5 347 L 235.5 346 Z " /><path fill="rgb(205,216,224)" stroke="rgb(205,216,224)" stroke-width="1" opacity="1" d="M 452.5 347 L 453.5 349 L 452.5 347 Z " /><path fill="rgb(205,216,224)" stroke="rgb(205,216,224)" stroke-width="1" opacity="1" d="M 262.5 350 L 269 350.5 L 262.5 351 L 262.5 350 Z " /><path fill="rgb(205,216,224)" stroke="rgb(205,216,224)" stroke-width="1" opacity="1" d="M 189.5 351 L 184.5 357 L 189.5 351 Z " /><path fill="rgb(205,216,224)" stroke="rgb(205,216,224)" stroke-width="1" opacity="1" d="M 208.5 354 L 210 354.5 L 207.5 356 L 208.5 354 Z " /><path fill="rgb(205,216,224)" stroke="rgb(205,216,224)" stroke-width="1" opacity="1" d="M 282.5 356 L 287.5 362 L 282.5 356 Z " /><path fill="rgb(205,216,224)" stroke="rgb(205,216,224)" stroke-width="1" opacity="1" d="M 440.5 356 L 437.5 360 L 440.5 356 Z " /><path fill="rgb(205,216,224)" stroke="rgb(205,216,224)" stroke-width="1" opacity="1" d="M 510.5 356 L 513 356.5 L 510.5 357 L 510.5 356 Z " /><path fill="rgb(205,216,224)" stroke="rgb(205,216,224)" stroke-width="1" opacity="1" d="M 179.5 362 L 175.5 367 L 179.5 362 Z " /><path fill="rgb(205,216,224)" stroke="rgb(205,216,224)" stroke-width="1" opacity="1" d="M 233.5 362 L 236 362.5 L 233.5 363 L 233.5 362 Z " /><path fill="rgb(205,216,224)" stroke="rgb(205,216,224)" stroke-width="1" opacity="1" d="M 198.5 365 L 195.5 369 L 198.5 365 Z " /><path fill="rgb(205,216,224)" stroke="rgb(205,216,224)" stroke-width="1" opacity="1" d="M 260.5 368 L 254.5 375 L 260.5 368 Z " /><path fill="rgb(205,216,224)" stroke="rgb(205,216,224)" stroke-width="1" opacity="1" d="M 451.5 368 L 449.5 371 L 451.5 368 Z " /><path fill="rgb(205,216,224)" stroke="rgb(205,216,224)" stroke-width="1" opacity="1" d="M 272.5 369 L 275.5 373 L 272.5 369 Z " /><path fill="rgb(205,216,224)" stroke="rgb(205,216,224)" stroke-width="1" opacity="1" d="M 537.5 369 L 536.5 371 L 537.5 369 Z " /><path fill="rgb(205,216,224)" stroke="rgb(205,216,224)" stroke-width="1" opacity="1" d="M 171.5 371 L 168.5 375 L 171.5 371 Z " /><path fill="rgb(205,216,224)" stroke="rgb(205,216,224)" stroke-width="1" opacity="1" d="M 520.5 371 L 523 371.5 L 520.5 372 L 520.5 371 Z " /><path fill="rgb(205,216,224)" stroke="rgb(205,216,224)" stroke-width="1" opacity="1" d="M 484.5 372 L 487 372.5 L 484.5 373 L 484.5 372 Z " /><path fill="rgb(205,216,224)" stroke="rgb(205,216,224)" stroke-width="1" opacity="1" d="M 511.5 372 L 516 372.5 L 511.5 373 L 511.5 372 Z " /><path fill="rgb(205,216,224)" stroke="rgb(205,216,224)" stroke-width="1" opacity="1" d="M 495.5 373 L 500 373.5 L 495.5 374 L 495.5 373 Z " /><path fill="rgb(205,216,224)" stroke="rgb(205,216,224)" stroke-width="1" opacity="1" d="M 532.5 373 L 531.5 375 L 532.5 373 Z " /><path fill="rgb(205,216,224)" stroke="rgb(205,216,224)" stroke-width="1" opacity="1" d="M 189.5 375 L 187.5 378 L 189.5 375 Z " /><path fill="rgb(205,216,224)" stroke="rgb(205,216,224)" stroke-width="1" opacity="1" d="M 529.5 375 L 528.5 377 L 529.5 375 Z " /><path fill="rgb(205,216,224)" stroke="rgb(205,216,224)" stroke-width="1" opacity="1" d="M 526.5 377 L 525.5 379 L 526.5 377 Z " /><path fill="rgb(205,216,224)" stroke="rgb(205,216,224)" stroke-width="1" opacity="1" d="M 251.5 378 L 250.5 380 L 251.5 378 Z " /><path fill="rgb(205,216,224)" stroke="rgb(205,216,224)" stroke-width="1" opacity="1" d="M 551.5 378 L 549.5 381 L 551.5 378 Z " /><path fill="rgb(205,216,224)" stroke="rgb(205,216,224)" stroke-width="1" opacity="1" d="M 164.5 379 L 162.5 382 L 164.5 379 Z " /><path fill="rgb(205,216,224)" stroke="rgb(205,216,224)" stroke-width="1" opacity="1" d="M 429.5 380 L 430 393.5 L 429 393.5 L 429.5 380 Z " /><path fill="rgb(205,216,224)" stroke="rgb(205,216,224)" stroke-width="1" opacity="1" d="M 247.5 383 L 245.5 386 L 247.5 383 Z " /><path fill="rgb(205,216,224)" stroke="rgb(205,216,224)" stroke-width="1" opacity="1" d="M 100.5 384 L 101.5 386 L 100.5 384 Z " /><path fill="rgb(205,216,224)" stroke="rgb(205,216,224)" stroke-width="1" opacity="1" d="M 181.5 384 L 180.5 386 L 181.5 384 Z " /><path fill="rgb(205,216,224)" stroke="rgb(205,216,224)" stroke-width="1" opacity="1" d="M 158.5 386 L 156.5 389 L 158.5 386 Z " /><path fill="rgb(205,216,224)" stroke="rgb(205,216,224)" stroke-width="1" opacity="1" d="M 102.5 387 L 103.5 389 L 102.5 387 Z " /><path fill="rgb(205,216,224)" stroke="rgb(205,216,224)" stroke-width="1" opacity="1" d="M 277.5 390 L 275.5 393 L 277.5 390 Z " /><path fill="rgb(205,216,224)" stroke="rgb(205,216,224)" stroke-width="1" opacity="1" d="M 491.5 390 L 494 390.5 L 491.5 391 L 491.5 390 Z " /><path fill="rgb(205,216,224)" stroke="rgb(205,216,224)" stroke-width="1" opacity="1" d="M 105.5 391 L 106.5 393 L 105.5 391 Z " /><path fill="rgb(205,216,224)" stroke="rgb(205,216,224)" stroke-width="1" opacity="1" d="M 175.5 391 L 173.5 394 L 175.5 391 Z " /><path fill="rgb(205,216,224)" stroke="rgb(205,216,224)" stroke-width="1" opacity="1" d="M 484.5 391 L 487 391.5 L 484.5 392 L 484.5 391 Z " /><path fill="rgb(205,216,224)" stroke="rgb(205,216,224)" stroke-width="1" opacity="1" d="M 153.5 392 L 151.5 395 L 153.5 392 Z " /><path fill="rgb(205,216,224)" stroke="rgb(205,216,224)" stroke-width="1" opacity="1" d="M 457.5 392 L 462 392.5 L 457.5 393 L 457.5 392 Z " /><path fill="rgb(205,216,224)" stroke="rgb(205,216,224)" stroke-width="1" opacity="1" d="M 472.5 392 L 479 392.5 L 472.5 393 L 472.5 392 Z " /><path fill="rgb(205,216,224)" stroke="rgb(205,216,224)" stroke-width="1" opacity="1" d="M 237.5 393 L 236.5 395 L 237.5 393 Z " /><path fill="rgb(205,216,224)" stroke="rgb(205,216,224)" stroke-width="1" opacity="1" d="M 273.5 395 L 267.5 402 L 273.5 395 Z " /><path fill="rgb(205,216,224)" stroke="rgb(205,216,224)" stroke-width="1" opacity="1" d="M 111.5 398 L 113.5 401 L 111.5 398 Z " /><path fill="rgb(205,216,224)" stroke="rgb(205,216,224)" stroke-width="1" opacity="1" d="M 169.5 398 L 168.5 400 L 169.5 398 Z " /><path fill="rgb(205,216,224)" stroke="rgb(205,216,224)" stroke-width="1" opacity="1" d="M 295.5 398 L 296 452.5 L 295 452.5 L 295.5 398 Z " /><path fill="rgb(205,216,224)" stroke="rgb(205,216,224)" stroke-width="1" opacity="1" d="M 428.5 400 L 429 403.5 L 428 403.5 L 428.5 400 Z " /><path fill="rgb(205,216,224)" stroke="rgb(205,216,224)" stroke-width="1" opacity="1" d="M 94.5 403 L 95.5 405 L 94.5 403 Z " /><path fill="rgb(205,216,224)" stroke="rgb(205,216,224)" stroke-width="1" opacity="1" d="M 117.5 403 L 118.5 405 L 117.5 403 Z " /><path fill="rgb(205,216,224)" stroke="rgb(205,216,224)" stroke-width="1" opacity="1" d="M 142.5 403 L 141.5 405 L 142.5 403 Z " /><path fill="rgb(205,216,224)" stroke="rgb(205,216,224)" stroke-width="1" opacity="1" d="M 164.5 404 L 162.5 407 L 164.5 404 Z " /><path fill="rgb(205,216,224)" stroke="rgb(205,216,224)" stroke-width="1" opacity="1" d="M 263.5 404 L 262.5 406 L 263.5 404 Z " /><path fill="rgb(205,216,224)" stroke="rgb(205,216,224)" stroke-width="1" opacity="1" d="M 174.5 405 L 175 410.5 L 174 410.5 L 174.5 405 Z " /><path fill="rgb(205,216,224)" stroke="rgb(205,216,224)" stroke-width="1" opacity="1" d="M 127.5 408 L 133 408.5 L 127.5 409 L 127.5 408 Z " /><path fill="rgb(205,216,224)" stroke="rgb(205,216,224)" stroke-width="1" opacity="1" d="M 192.5 408 L 193.5 410 L 192.5 408 Z " /><path fill="rgb(205,216,224)" stroke="rgb(205,216,224)" stroke-width="1" opacity="1" d="M 455.5 408 L 458 408.5 L 455.5 409 L 455.5 408 Z " /><path fill="rgb(205,216,224)" stroke="rgb(205,216,224)" stroke-width="1" opacity="1" d="M 476.5 408 L 481 408.5 L 476.5 409 L 476.5 408 Z " /><path fill="rgb(205,216,224)" stroke="rgb(205,216,224)" stroke-width="1" opacity="1" d="M 427.5 409 L 428 412.5 L 427 412.5 L 427.5 409 Z " /><path fill="rgb(205,216,224)" stroke="rgb(205,216,224)" stroke-width="1" opacity="1" d="M 105.5 414 L 106.5 416 L 105.5 414 Z " /><path fill="rgb(205,216,224)" stroke="rgb(205,216,224)" stroke-width="1" opacity="1" d="M 153.5 415 L 152.5 417 L 153.5 415 Z " /><path fill="rgb(205,216,224)" stroke="rgb(205,216,224)" stroke-width="1" opacity="1" d="M 218.5 416 L 233 416.5 L 218.5 417 L 218.5 416 Z " /><path fill="rgb(205,216,224)" stroke="rgb(205,216,224)" stroke-width="1" opacity="1" d="M 274.5 416 L 273.5 418 L 274.5 416 Z " /><path fill="rgb(205,216,224)" stroke="rgb(205,216,224)" stroke-width="1" opacity="1" d="M 426.5 418 L 427 421.5 L 426 421.5 L 426.5 418 Z " /><path fill="rgb(205,216,224)" stroke="rgb(205,216,224)" stroke-width="1" opacity="1" d="M 132.5 424 L 135 424.5 L 132.5 425 L 132.5 424 Z " /><path fill="rgb(205,216,224)" stroke="rgb(205,216,224)" stroke-width="1" opacity="1" d="M 425.5 427 L 426 429.5 L 425 429.5 L 425.5 427 Z " /><path fill="rgb(205,216,224)" stroke="rgb(205,216,224)" stroke-width="1" opacity="1" d="M 217.5 432 L 223 432.5 L 217.5 433 L 217.5 432 Z " /><path fill="rgb(205,216,224)" stroke="rgb(205,216,224)" stroke-width="1" opacity="1" d="M 231.5 432 L 235 432.5 L 231.5 433 L 231.5 432 Z " /><path fill="rgb(205,216,224)" stroke="rgb(205,216,224)" stroke-width="1" opacity="1" d="M 424.5 435 L 425 437.5 L 424 437.5 L 424.5 435 Z " /><path fill="rgb(205,216,224)" stroke="rgb(205,216,224)" stroke-width="1" opacity="1" d="M 279.5 443 L 280 455.5 L 279 455.5 L 279.5 443 Z " /><path fill="rgb(205,216,224)" stroke="rgb(205,216,224)" stroke-width="1" opacity="1" d="M 423.5 443 L 424 445.5 L 423 445.5 L 423.5 443 Z " /><path fill="rgb(205,216,224)" stroke="rgb(205,216,224)" stroke-width="1" opacity="1" d="M 422.5 451 L 423 453.5 L 422 453.5 L 422.5 451 Z " /><path fill="rgb(205,216,224)" stroke="rgb(205,216,224)" stroke-width="1" opacity="1" d="M 421.5 459 L 422 461.5 L 421 461.5 L 421.5 459 Z " /><path fill="rgb(205,216,224)" stroke="rgb(205,216,224)" stroke-width="1" opacity="1" d="M 420.5 467 L 421 469.5 L 420 469.5 L 420.5 467 Z " /><path fill="rgb(205,216,224)" stroke="rgb(205,216,224)" stroke-width="1" opacity="1" d="M 296.5 472 L 297 480.5 L 296 480.5 L 296.5 472 Z " /><path fill="rgb(205,216,224)" stroke="rgb(205,216,224)" stroke-width="1" opacity="1" d="M 419.5 474 L 420 476.5 L 419 476.5 L 419.5 474 Z " /><path fill="rgb(205,216,224)" stroke="rgb(205,216,224)" stroke-width="1" opacity="1" d="M 280.5 478 L 281 482.5 L 280 482.5 L 280.5 478 Z " /><path fill="rgb(205,216,224)" stroke="rgb(205,216,224)" stroke-width="1" opacity="1" d="M 418.5 481 L 419 483.5 L 418 483.5 L 418.5 481 Z " /><path fill="rgb(205,216,224)" stroke="rgb(205,216,224)" stroke-width="1" opacity="1" d="M 417.5 488 L 418 490.5 L 417 490.5 L 417.5 488 Z " /><path fill="rgb(205,216,224)" stroke="rgb(205,216,224)" stroke-width="1" opacity="1" d="M 297.5 491 L 298 496.5 L 297 496.5 L 297.5 491 Z " /><path fill="rgb(205,216,224)" stroke="rgb(205,216,224)" stroke-width="1" opacity="1" d="M 281.5 495 L 282 497.5 L 281 497.5 L 281.5 495 Z " /><path fill="rgb(205,216,224)" stroke="rgb(205,216,224)" stroke-width="1" opacity="1" d="M 416.5 495 L 417 497.5 L 416 497.5 L 416.5 495 Z " /><path fill="rgb(205,216,224)" stroke="rgb(205,216,224)" stroke-width="1" opacity="1" d="M 298.5 504 L 299 507.5 L 298 507.5 L 298.5 504 Z " /><path fill="rgb(205,216,224)" stroke="rgb(205,216,224)" stroke-width="1" opacity="1" d="M 299.5 512 L 300 515.5 L 299 515.5 L 299.5 512 Z " /><path fill="rgb(205,216,224)" stroke="rgb(205,216,224)" stroke-width="1" opacity="1" d="M 403.5 537 L 402.5 539 L 403.5 537 Z " /><path fill="rgb(205,216,224)" stroke="rgb(205,216,224)" stroke-width="1" opacity="1" d="M 309.5 542 L 310.5 544 L 309.5 542 Z " /><path fill="rgb(205,216,224)" stroke="rgb(205,216,224)" stroke-width="1" opacity="1" d="M 312.5 546 L 313.5 548 L 312.5 546 Z " /><path fill="rgb(205,216,224)" stroke="rgb(205,216,224)" stroke-width="1" opacity="1" d="M 394.5 546 L 393.5 548 L 394.5 546 Z " /><path fill="rgb(205,216,224)" stroke="rgb(205,216,224)" stroke-width="1" opacity="1" d="M 391.5 548 L 390.5 550 L 391.5 548 Z " /><path fill="rgb(205,216,224)" stroke="rgb(205,216,224)" stroke-width="1" opacity="1" d="M 415.5 548 L 414.5 550 L 415.5 548 Z " /><path fill="rgb(205,216,224)" stroke="rgb(205,216,224)" stroke-width="1" opacity="1" d="M 319.5 553 L 320.5 555 L 319.5 553 Z " /><path fill="rgb(205,216,224)" stroke="rgb(205,216,224)" stroke-width="1" opacity="1" d="M 300.5 557 L 302.5 560 L 300.5 557 Z " /><path fill="rgb(205,216,224)" stroke="rgb(205,216,224)" stroke-width="1" opacity="1" d="M 338.5 561 L 343 561.5 L 338.5 562 L 338.5 561 Z " /><path fill="rgb(205,216,224)" stroke="rgb(205,216,224)" stroke-width="1" opacity="1" d="M 348.5 561 L 354 561.5 L 348.5 562 L 348.5 561 Z " /><path fill="rgb(205,216,224)" stroke="rgb(205,216,224)" stroke-width="1" opacity="1" d="M 307.5 564 L 308.5 566 L 307.5 564 Z " /><path fill="rgb(205,216,224)" stroke="rgb(205,216,224)" stroke-width="1" opacity="1" d="M 352.5 577 L 355 577.5 L 352.5 578 L 352.5 577 Z " /><path fill="rgb(254,254,254)" stroke="rgb(254,254,254)" stroke-width="1" opacity="1" d="M 408.5 16 L 444.5 18 L 467.5 23 L 479.5 27 Q 512.8 39.7 535 63.5 L 547 77.5 L 553 90.5 L 556 106.5 L 556 135.5 L 555 136.5 L 553 158.5 L 546 191.5 L 527 249.5 L 501 306.5 L 474 351.5 L 476.5 354 L 487.5 357 L 512.5 357 L 538.5 352 L 548.5 352 Q 554.3 353.3 557 357.5 L 559 365.5 Q 555 378.5 544.5 385 Q 529 397.5 507.5 404 L 486.5 408 L 458.5 409 L 444 406 L 438 461.5 L 437 462.5 L 436 476.5 L 435 477.5 L 435 483.5 L 434 484.5 L 430 514.5 L 422 538.5 Q 416 550 406.5 558 Q 382.1 577.6 338.5 578 L 324.5 575 Q 311.6 569.9 303 560.5 L 290 540.5 L 284 521.5 L 283 507.5 L 282 506.5 L 282 495.5 L 281 494.5 L 281 478.5 L 280 477.5 L 280 443.5 L 279 442.5 L 278.5 413 Q 260.2 432.2 223.5 433 L 222.5 432 L 205.5 431 L 191.5 427 Q 182.5 423.5 177 416.5 Q 173.7 412.8 175 404.5 Q 176.4 398.4 181.5 396 L 196.5 390 L 222.5 384 L 232 378 L 242 363 Q 221.8 362.5 208.5 354 L 154.5 415 Q 145.5 424 128.5 425 L 114.5 421 Q 103.8 414.8 96 405.5 Q 81.9 388.1 72 366.5 L 59 335.5 L 49 306.5 L 38 268.5 L 24 208.5 L 24 203.5 L 19 179.5 L 19 172.5 L 18 171.5 L 17 142.5 L 18 141.5 L 18 127.5 L 19 126.5 L 20 113.5 L 28 86.5 Q 37.1 63.6 54.5 49 Q 70.1 35.6 92.5 29 L 121.5 24 L 149.5 24 L 150.5 25 L 167.5 26 L 189.5 30 L 230.5 42 Q 245.3 31.3 265.5 26 L 275.5 24 L 282.5 24 L 283.5 23 L 316.5 23 L 344.5 28 L 347.5 26 L 371.5 20 L 392.5 18 L 393.5 17 L 407.5 17 L 408.5 16 Z M 405 32 L 404 33 L 393 33 L 392 34 L 378 35 L 371 38 Q 398 49 419 68 Q 458 103 476 161 Q 477 165 475 167 L 476 172 L 475 174 L 474 193 L 471 208 L 471 216 L 470 217 L 470 236 L 471 237 L 471 246 L 473 256 L 473 265 L 474 266 L 474 280 L 475 281 L 473 304 L 468 321 L 462 334 L 466 336 L 493 288 L 518 229 L 534 174 L 536 159 L 538 153 L 539 138 L 540 137 L 540 106 Q 538 104 539 100 Q 537 87 529 81 Q 508 55 475 42 L 451 35 L 439 34 L 438 33 L 405 32 Z M 297 38 L 296 39 L 277 40 L 256 46 L 233 60 Q 210 79 198 110 L 189 140 L 185 163 L 185 172 L 209 162 L 220 159 L 235 158 L 236 157 L 249 158 L 256 160 L 269 168 Q 277 176 281 190 L 285 209 L 286 222 L 287 223 L 287 232 L 288 233 L 288 261 L 287 262 L 287 270 L 285 281 L 280 298 Q 267 322 259 351 L 271 351 L 282 356 Q 292 364 296 380 L 296 398 L 295 399 L 295 453 L 296 454 L 296 481 L 297 482 L 298 508 L 299 509 L 299 516 L 301 526 L 312 547 Q 320 559 339 562 Q 373 562 394 548 Q 409 536 414 514 L 418 491 L 418 485 L 419 484 L 419 478 L 420 477 L 420 471 L 421 470 L 426 423 L 427 422 L 429 395 L 430 394 L 430 376 L 436 362 L 443 355 L 454 350 L 439 330 L 406 267 L 392 232 L 387 206 L 388 189 Q 390 178 396 172 Q 403 162 416 158 L 429 155 L 440 155 L 441 154 Q 445 153 447 155 L 458 155 Q 445 121 424 97 Q 400 67 364 51 L 351 46 L 326 40 L 297 38 Z M 120 40 L 119 41 L 106 42 L 89 47 Q 72 54 61 65 Q 48 78 41 97 L 35 120 L 34 138 L 33 139 L 33 163 L 34 164 L 34 173 L 35 174 L 38 198 L 52 260 L 64 302 L 83 353 L 100 385 L 111 399 Q 117 406 128 409 L 133 409 L 142 405 L 195 346 L 177 324 L 169 305 L 166 291 L 166 269 L 168 259 L 168 249 L 169 248 L 169 203 L 168 202 L 169 163 L 170 162 L 173 139 L 178 119 Q 190 80 215 55 L 201 49 L 168 42 L 152 41 L 151 40 L 120 40 Z M 436 170 L 421 173 L 411 179 L 405 188 L 403 196 L 403 207 L 404 208 L 405 219 L 414 246 L 450 316 Q 449 318 452 317 L 456 307 L 458 298 L 458 290 L 459 289 L 458 265 L 457 264 L 456 247 L 455 246 L 455 237 L 454 236 L 455 208 L 458 193 L 460 173 L 459 171 L 436 170 Z M 234 173 L 214 177 L 206 180 Q 193 185 184 193 L 184 204 L 185 205 L 185 247 L 184 248 L 183 268 L 182 269 L 182 291 L 184 300 Q 188 314 197 325 Q 207 336 222 343 L 236 347 L 244 347 L 250 327 L 266 290 L 272 263 L 272 233 L 271 232 L 271 223 L 266 195 L 261 184 L 251 175 L 241 173 L 234 173 Z M 463 364 L 452 368 Q 444 374 446 390 L 458 393 L 479 393 L 480 392 L 487 392 L 503 389 Q 523 383 537 371 L 538 369 L 521 371 L 520 372 L 512 372 L 511 373 L 488 373 Q 486 371 482 372 Q 470 370 463 364 Z M 265 366 L 261 368 L 245 387 Q 238 395 228 399 L 192 409 L 203 414 L 219 417 L 233 417 L 244 415 Q 258 411 268 402 L 278 391 L 280 385 Q 278 383 279 379 L 276 373 Q 272 367 265 366 Z " /><path fill="rgb(254,254,254)" stroke="rgb(254,254,254)" stroke-width="1" opacity="1" d="M 428.5 179 Q 438.8 177.6 443 181 Q 444.3 188.5 439.5 191 Q 435.8 196.8 424.5 195 L 417 189.5 L 416 185.5 L 419.5 182 L 428.5 179 Z " /><path fill="rgb(254,254,254)" stroke="rgb(254,254,254)" stroke-width="1" opacity="1" d="M 235.5 183 L 248.5 184 L 257 189.5 L 258 192.5 L 253.5 199 Q 249.3 203.3 239.5 202 L 230 195.5 L 227 189.5 L 228 186 L 235.5 183 Z " /><path fill="rgb(0,0,0)" stroke="rgb(0,0,0)" stroke-width="1" opacity="0" d="M 0 0 L 402 0.5 L 375.5 3 L 347.5 10 L 340.5 10 L 339.5 9 L 322.5 8 L 321.5 7 L 282.5 7 L 256.5 12 L 242.5 17 L 227.5 25 L 206.5 18 L 173.5 11 L 159.5 10 L 158.5 9 L 147.5 9 L 146.5 8 L 122.5 8 L 121.5 9 L 111.5 9 L 104.5 11 L 99.5 11 L 75.5 18 Q 51.4 27.9 35 45.5 L 19 67.5 L 8 93.5 L 4 109.5 L 3 120.5 L 2 121.5 L 2 130.5 L 1 131.5 L 1 170.5 L 2 171.5 L 2 179.5 L 3 180.5 L 5 198.5 L 15 246.5 L 25 285.5 L 42 338.5 Q 51.4 365.1 64 388.5 Q 74.8 409.2 90.5 425 Q 99.3 433.7 111.5 439 Q 121.9 444.1 139.5 442 Q 155.5 438.5 165.5 429 Q 188.4 454.1 240.5 450 L 254.5 447 L 266 443 L 267 484.5 L 268 485.5 L 268 497.5 L 269 498.5 L 269 506.5 L 270 507.5 L 272 524.5 L 280 549.5 L 285 560.5 L 299.5 579 Q 312.5 591.5 336 593.5 L 0 594 L 0 0 Z " /><path fill="rgb(0,0,0)" stroke="rgb(0,0,0)" stroke-width="1" opacity="0" d="M 426.5 0 L 576 0 L 576 361.5 L 575 361.5 L 575 355.5 L 566 342 L 555.5 337 L 536.5 336 L 518.5 340 L 502.5 341 L 503 339.5 Q 535.8 284.3 557 217.5 L 565 187.5 L 571 157.5 L 571 150.5 L 573 141.5 L 574 115.5 L 573 114.5 L 573 102.5 L 571 91.5 Q 568.4 80.1 563 71.5 Q 551.6 54.9 536.5 42 Q 514.1 22.4 483.5 11 L 453.5 3 L 440.5 2 L 439.5 1 L 426.5 1 L 426.5 0 Z " /><path fill="rgb(0,0,0)" stroke="rgb(0,0,0)" stroke-width="1" opacity="0" d="M 575.5 371 L 576 594 L 349 593.5 L 362.5 592 L 390.5 584 Q 409.3 576.3 422 562.5 Q 438.2 543.7 446 516.5 L 453 480.5 L 454 460.5 L 455 459.5 L 456 428.5 L 457.5 426 L 458.5 427 L 479.5 427 L 480.5 426 L 489.5 426 L 506.5 423 L 525.5 417 Q 550.3 406.8 567 388.5 L 574 377.5 L 575.5 371 Z " /></svg>